%TF.GenerationSoftware,KiCad,Pcbnew,10.0.3*%
%TF.CreationDate,2026-06-03T19:40:10+03:00*%
%TF.ProjectId,KYX-5361AG_7-SEG-LED_v2,4b59582d-3533-4363-9141-475f372d5345,rev?*%
%TF.SameCoordinates,Original*%
%TF.FileFunction,Soldermask,Top*%
%TF.FilePolarity,Negative*%
%FSLAX46Y46*%
G04 Gerber Fmt 4.6, Leading zero omitted, Abs format (unit mm)*
G04 Created by KiCad (PCBNEW 10.0.3) date 2026-06-03 19:40:10*
%MOMM*%
%LPD*%
G01*
G04 APERTURE LIST*
%ADD10C,0.300000*%
%ADD11C,0.400000*%
%ADD12R,1.700000X1.700000*%
%ADD13C,1.700000*%
%ADD14R,1.500000X1.500000*%
%ADD15C,1.500000*%
G04 APERTURE END LIST*
D10*
X246750000Y-49878328D02*
X247107143Y-50878328D01*
X247107143Y-50878328D02*
X247464286Y-49878328D01*
X248607143Y-50806900D02*
X248464286Y-50878328D01*
X248464286Y-50878328D02*
X248178572Y-50878328D01*
X248178572Y-50878328D02*
X248035714Y-50806900D01*
X248035714Y-50806900D02*
X247964286Y-50664042D01*
X247964286Y-50664042D02*
X247964286Y-50092614D01*
X247964286Y-50092614D02*
X248035714Y-49949757D01*
X248035714Y-49949757D02*
X248178572Y-49878328D01*
X248178572Y-49878328D02*
X248464286Y-49878328D01*
X248464286Y-49878328D02*
X248607143Y-49949757D01*
X248607143Y-49949757D02*
X248678572Y-50092614D01*
X248678572Y-50092614D02*
X248678572Y-50235471D01*
X248678572Y-50235471D02*
X247964286Y-50378328D01*
X249321428Y-50878328D02*
X249321428Y-49878328D01*
X249321428Y-50164042D02*
X249392857Y-50021185D01*
X249392857Y-50021185D02*
X249464286Y-49949757D01*
X249464286Y-49949757D02*
X249607143Y-49878328D01*
X249607143Y-49878328D02*
X249750000Y-49878328D01*
X251321428Y-49521185D02*
X251392856Y-49449757D01*
X251392856Y-49449757D02*
X251535714Y-49378328D01*
X251535714Y-49378328D02*
X251892856Y-49378328D01*
X251892856Y-49378328D02*
X252035714Y-49449757D01*
X252035714Y-49449757D02*
X252107142Y-49521185D01*
X252107142Y-49521185D02*
X252178571Y-49664042D01*
X252178571Y-49664042D02*
X252178571Y-49806900D01*
X252178571Y-49806900D02*
X252107142Y-50021185D01*
X252107142Y-50021185D02*
X251249999Y-50878328D01*
X251249999Y-50878328D02*
X252178571Y-50878328D01*
D11*
X238214285Y-20304438D02*
X239357142Y-20304438D01*
X238785713Y-22304438D02*
X238785713Y-20304438D01*
X239928571Y-21733009D02*
X240880952Y-21733009D01*
X239738095Y-22304438D02*
X240404761Y-20304438D01*
X240404761Y-20304438D02*
X241071428Y-22304438D01*
X241738095Y-20304438D02*
X241738095Y-21923485D01*
X241738095Y-21923485D02*
X241833333Y-22113961D01*
X241833333Y-22113961D02*
X241928571Y-22209200D01*
X241928571Y-22209200D02*
X242119047Y-22304438D01*
X242119047Y-22304438D02*
X242500000Y-22304438D01*
X242500000Y-22304438D02*
X242690476Y-22209200D01*
X242690476Y-22209200D02*
X242785714Y-22113961D01*
X242785714Y-22113961D02*
X242880952Y-21923485D01*
X242880952Y-21923485D02*
X242880952Y-20304438D01*
X243833333Y-22304438D02*
X243833333Y-20304438D01*
X243833333Y-20304438D02*
X244976190Y-22304438D01*
X244976190Y-22304438D02*
X244976190Y-20304438D01*
X246309523Y-20304438D02*
X246690476Y-20304438D01*
X246690476Y-20304438D02*
X246880952Y-20399676D01*
X246880952Y-20399676D02*
X247071428Y-20590152D01*
X247071428Y-20590152D02*
X247166666Y-20971104D01*
X247166666Y-20971104D02*
X247166666Y-21637771D01*
X247166666Y-21637771D02*
X247071428Y-22018723D01*
X247071428Y-22018723D02*
X246880952Y-22209200D01*
X246880952Y-22209200D02*
X246690476Y-22304438D01*
X246690476Y-22304438D02*
X246309523Y-22304438D01*
X246309523Y-22304438D02*
X246119047Y-22209200D01*
X246119047Y-22209200D02*
X245928571Y-22018723D01*
X245928571Y-22018723D02*
X245833333Y-21637771D01*
X245833333Y-21637771D02*
X245833333Y-20971104D01*
X245833333Y-20971104D02*
X245928571Y-20590152D01*
X245928571Y-20590152D02*
X246119047Y-20399676D01*
X246119047Y-20399676D02*
X246309523Y-20304438D01*
X248023809Y-21256819D02*
X248690476Y-21256819D01*
X248976190Y-22304438D02*
X248023809Y-22304438D01*
X248023809Y-22304438D02*
X248023809Y-20304438D01*
X248023809Y-20304438D02*
X248976190Y-20304438D01*
X251166667Y-20304438D02*
X252500000Y-20304438D01*
X252500000Y-20304438D02*
X251642857Y-22304438D01*
X253261905Y-21542533D02*
X254785715Y-21542533D01*
X255642857Y-22209200D02*
X255928571Y-22304438D01*
X255928571Y-22304438D02*
X256404762Y-22304438D01*
X256404762Y-22304438D02*
X256595238Y-22209200D01*
X256595238Y-22209200D02*
X256690476Y-22113961D01*
X256690476Y-22113961D02*
X256785714Y-21923485D01*
X256785714Y-21923485D02*
X256785714Y-21733009D01*
X256785714Y-21733009D02*
X256690476Y-21542533D01*
X256690476Y-21542533D02*
X256595238Y-21447295D01*
X256595238Y-21447295D02*
X256404762Y-21352057D01*
X256404762Y-21352057D02*
X256023809Y-21256819D01*
X256023809Y-21256819D02*
X255833333Y-21161580D01*
X255833333Y-21161580D02*
X255738095Y-21066342D01*
X255738095Y-21066342D02*
X255642857Y-20875866D01*
X255642857Y-20875866D02*
X255642857Y-20685390D01*
X255642857Y-20685390D02*
X255738095Y-20494914D01*
X255738095Y-20494914D02*
X255833333Y-20399676D01*
X255833333Y-20399676D02*
X256023809Y-20304438D01*
X256023809Y-20304438D02*
X256500000Y-20304438D01*
X256500000Y-20304438D02*
X256785714Y-20399676D01*
X257642857Y-21256819D02*
X258309524Y-21256819D01*
X258595238Y-22304438D02*
X257642857Y-22304438D01*
X257642857Y-22304438D02*
X257642857Y-20304438D01*
X257642857Y-20304438D02*
X258595238Y-20304438D01*
X260500000Y-20399676D02*
X260309524Y-20304438D01*
X260309524Y-20304438D02*
X260023810Y-20304438D01*
X260023810Y-20304438D02*
X259738095Y-20399676D01*
X259738095Y-20399676D02*
X259547619Y-20590152D01*
X259547619Y-20590152D02*
X259452381Y-20780628D01*
X259452381Y-20780628D02*
X259357143Y-21161580D01*
X259357143Y-21161580D02*
X259357143Y-21447295D01*
X259357143Y-21447295D02*
X259452381Y-21828247D01*
X259452381Y-21828247D02*
X259547619Y-22018723D01*
X259547619Y-22018723D02*
X259738095Y-22209200D01*
X259738095Y-22209200D02*
X260023810Y-22304438D01*
X260023810Y-22304438D02*
X260214286Y-22304438D01*
X260214286Y-22304438D02*
X260500000Y-22209200D01*
X260500000Y-22209200D02*
X260595238Y-22113961D01*
X260595238Y-22113961D02*
X260595238Y-21447295D01*
X260595238Y-21447295D02*
X260214286Y-21447295D01*
D12*
%TO.C,J2*%
X270800000Y-29020000D03*
D13*
X270800000Y-31560000D03*
X270800000Y-34100000D03*
X270800000Y-36640000D03*
X270800000Y-39180000D03*
X270800000Y-41720000D03*
%TD*%
D14*
%TO.C,U3*%
X243150000Y-43500000D03*
D15*
X245690000Y-43500000D03*
X248230000Y-43500000D03*
X250770000Y-43500000D03*
X253310000Y-43500000D03*
X255850000Y-43500000D03*
X255850000Y-28260000D03*
X253310000Y-28260000D03*
X250770000Y-28260000D03*
X248230000Y-28260000D03*
X245690000Y-28260000D03*
X243150000Y-28260000D03*
%TD*%
M02*
