M48
; DRILL file KiCad 10.0.3 date 2026-06-03T19:41:36
; FORMAT={-:-/ absolute / metric / decimal}
; #@! TF.CreationDate,2026-06-03T19:41:36+03:00
; #@! TF.GenerationSoftware,Kicad,Pcbnew,10.0.3
; #@! TF.FileFunction,Plated,1,2,PTH
FMAT,2
METRIC
; #@! TA.AperFunction,Plated,PTH,ViaDrill
T1C0.300
; #@! TA.AperFunction,Plated,PTH,ComponentDrill
T2C1.000
%
G90
G05
T1
X225.71Y-39.31
X226.1Y-42.4
X226.2Y-25.4
X227.6Y-30.1
X229.27Y-36.77
X229.3Y-35.5
X229.3Y-38.0
X230.2Y-43.3
X234.32Y-40.58
X239.7Y-17.3
X239.7Y-25.2
X240.2Y-46.6
X240.7Y-54.3
X240.8Y-44.4
X243.8Y-46.8
X244.1Y-53.5
X244.4Y-27.0
X246.9Y-27.0
X247.0Y-23.5
X247.1Y-30.1
X247.2Y-46.9
X249.5Y-27.0
X250.5Y-31.2
X250.7Y-53.1
X250.8Y-24.1
X253.29Y-41.49
X253.8Y-24.1
X254.4Y-47.1
X254.6Y-27.0
X256.7Y-35.6
X257.3Y-46.8
X258.7Y-30.3
X259.2Y-27.9
X259.2Y-42.4
X265.4Y-24.7
X265.4Y-29.0
X266.6Y-54.1
X268.2Y-32.6
T2
X243.15Y-28.26
X243.15Y-43.5
X245.69Y-28.26
X245.69Y-43.5
X248.23Y-28.26
X248.23Y-43.5
X250.77Y-28.26
X250.77Y-43.5
X253.31Y-28.26
X253.31Y-43.5
X255.85Y-28.26
X255.85Y-43.5
X270.8Y-29.02
X270.8Y-31.56
X270.8Y-34.1
X270.8Y-36.64
X270.8Y-39.18
X270.8Y-41.72
M30
