%TF.GenerationSoftware,KiCad,Pcbnew,10.0.3*%
%TF.CreationDate,2026-06-03T19:40:13+03:00*%
%TF.ProjectId,KYX-5361AG_7-SEG-LED_v2,4b59582d-3533-4363-9141-475f372d5345,rev?*%
%TF.SameCoordinates,Original*%
%TF.FileFunction,Soldermask,Bot*%
%TF.FilePolarity,Negative*%
%FSLAX46Y46*%
G04 Gerber Fmt 4.6, Leading zero omitted, Abs format (unit mm)*
G04 Created by KiCad (PCBNEW 10.0.3) date 2026-06-03 19:40:13*
%MOMM*%
%LPD*%
G01*
G04 APERTURE LIST*
G04 Aperture macros list*
%AMRoundRect*
0 Rectangle with rounded corners*
0 $1 Rounding radius*
0 $2 $3 $4 $5 $6 $7 $8 $9 X,Y pos of 4 corners*
0 Add a 4 corners polygon primitive as box body*
4,1,4,$2,$3,$4,$5,$6,$7,$8,$9,$2,$3,0*
0 Add four circle primitives for the rounded corners*
1,1,$1+$1,$2,$3*
1,1,$1+$1,$4,$5*
1,1,$1+$1,$6,$7*
1,1,$1+$1,$8,$9*
0 Add four rect primitives between the rounded corners*
20,1,$1+$1,$2,$3,$4,$5,0*
20,1,$1+$1,$4,$5,$6,$7,0*
20,1,$1+$1,$6,$7,$8,$9,0*
20,1,$1+$1,$8,$9,$2,$3,0*%
G04 Aperture macros list end*
%ADD10C,0.200000*%
%ADD11R,1.700000X1.700000*%
%ADD12C,1.700000*%
%ADD13R,1.500000X1.500000*%
%ADD14C,1.500000*%
%ADD15RoundRect,0.250000X-0.625000X0.400000X-0.625000X-0.400000X0.625000X-0.400000X0.625000X0.400000X0*%
%ADD16RoundRect,0.150000X0.825000X0.150000X-0.825000X0.150000X-0.825000X-0.150000X0.825000X-0.150000X0*%
%ADD17RoundRect,0.250000X0.625000X-0.400000X0.625000X0.400000X-0.625000X0.400000X-0.625000X-0.400000X0*%
%ADD18RoundRect,0.150000X-0.150000X0.587500X-0.150000X-0.587500X0.150000X-0.587500X0.150000X0.587500X0*%
%ADD19RoundRect,0.250000X0.400000X0.625000X-0.400000X0.625000X-0.400000X-0.625000X0.400000X-0.625000X0*%
%ADD20RoundRect,0.150000X-0.825000X-0.150000X0.825000X-0.150000X0.825000X0.150000X-0.825000X0.150000X0*%
G04 APERTURE END LIST*
D10*
X238454136Y-45178776D02*
X237768422Y-45178776D01*
X238111279Y-46378776D02*
X238111279Y-45178776D01*
X236854136Y-46378776D02*
X236854136Y-45750205D01*
X236854136Y-45750205D02*
X236911278Y-45635919D01*
X236911278Y-45635919D02*
X237025564Y-45578776D01*
X237025564Y-45578776D02*
X237254136Y-45578776D01*
X237254136Y-45578776D02*
X237368421Y-45635919D01*
X236854136Y-46321634D02*
X236968421Y-46378776D01*
X236968421Y-46378776D02*
X237254136Y-46378776D01*
X237254136Y-46378776D02*
X237368421Y-46321634D01*
X237368421Y-46321634D02*
X237425564Y-46207348D01*
X237425564Y-46207348D02*
X237425564Y-46093062D01*
X237425564Y-46093062D02*
X237368421Y-45978776D01*
X237368421Y-45978776D02*
X237254136Y-45921634D01*
X237254136Y-45921634D02*
X236968421Y-45921634D01*
X236968421Y-45921634D02*
X236854136Y-45864491D01*
X235768422Y-45578776D02*
X235768422Y-46378776D01*
X236282707Y-45578776D02*
X236282707Y-46207348D01*
X236282707Y-46207348D02*
X236225564Y-46321634D01*
X236225564Y-46321634D02*
X236111279Y-46378776D01*
X236111279Y-46378776D02*
X235939850Y-46378776D01*
X235939850Y-46378776D02*
X235825564Y-46321634D01*
X235825564Y-46321634D02*
X235768422Y-46264491D01*
X235196993Y-45578776D02*
X235196993Y-46378776D01*
X235196993Y-45693062D02*
X235139850Y-45635919D01*
X235139850Y-45635919D02*
X235025565Y-45578776D01*
X235025565Y-45578776D02*
X234854136Y-45578776D01*
X234854136Y-45578776D02*
X234739850Y-45635919D01*
X234739850Y-45635919D02*
X234682708Y-45750205D01*
X234682708Y-45750205D02*
X234682708Y-46378776D01*
X233939851Y-46378776D02*
X234054136Y-46321634D01*
X234054136Y-46321634D02*
X234111279Y-46264491D01*
X234111279Y-46264491D02*
X234168422Y-46150205D01*
X234168422Y-46150205D02*
X234168422Y-45807348D01*
X234168422Y-45807348D02*
X234111279Y-45693062D01*
X234111279Y-45693062D02*
X234054136Y-45635919D01*
X234054136Y-45635919D02*
X233939851Y-45578776D01*
X233939851Y-45578776D02*
X233768422Y-45578776D01*
X233768422Y-45578776D02*
X233654136Y-45635919D01*
X233654136Y-45635919D02*
X233596994Y-45693062D01*
X233596994Y-45693062D02*
X233539851Y-45807348D01*
X233539851Y-45807348D02*
X233539851Y-46150205D01*
X233539851Y-46150205D02*
X233596994Y-46264491D01*
X233596994Y-46264491D02*
X233654136Y-46321634D01*
X233654136Y-46321634D02*
X233768422Y-46378776D01*
X233768422Y-46378776D02*
X233939851Y-46378776D01*
X232111279Y-45750205D02*
X231711279Y-45750205D01*
X231539851Y-46378776D02*
X232111279Y-46378776D01*
X232111279Y-46378776D02*
X232111279Y-45178776D01*
X232111279Y-45178776D02*
X231539851Y-45178776D01*
X231025565Y-46378776D02*
X231025565Y-45578776D01*
X231025565Y-45807348D02*
X230968422Y-45693062D01*
X230968422Y-45693062D02*
X230911280Y-45635919D01*
X230911280Y-45635919D02*
X230796994Y-45578776D01*
X230796994Y-45578776D02*
X230682708Y-45578776D01*
X230282708Y-46378776D02*
X230282708Y-45578776D01*
X230282708Y-45178776D02*
X230339851Y-45235919D01*
X230339851Y-45235919D02*
X230282708Y-45293062D01*
X230282708Y-45293062D02*
X230225565Y-45235919D01*
X230225565Y-45235919D02*
X230282708Y-45178776D01*
X230282708Y-45178776D02*
X230282708Y-45293062D01*
X229711279Y-46378776D02*
X229711279Y-45178776D01*
X229596994Y-45921634D02*
X229254136Y-46378776D01*
X229254136Y-45578776D02*
X229711279Y-46035919D01*
X238054136Y-47110709D02*
X237939850Y-47110709D01*
X237939850Y-47110709D02*
X237825564Y-47167852D01*
X237825564Y-47167852D02*
X237768422Y-47224995D01*
X237768422Y-47224995D02*
X237711279Y-47339281D01*
X237711279Y-47339281D02*
X237654136Y-47567852D01*
X237654136Y-47567852D02*
X237654136Y-47853567D01*
X237654136Y-47853567D02*
X237711279Y-48082138D01*
X237711279Y-48082138D02*
X237768422Y-48196424D01*
X237768422Y-48196424D02*
X237825564Y-48253567D01*
X237825564Y-48253567D02*
X237939850Y-48310709D01*
X237939850Y-48310709D02*
X238054136Y-48310709D01*
X238054136Y-48310709D02*
X238168422Y-48253567D01*
X238168422Y-48253567D02*
X238225564Y-48196424D01*
X238225564Y-48196424D02*
X238282707Y-48082138D01*
X238282707Y-48082138D02*
X238339850Y-47853567D01*
X238339850Y-47853567D02*
X238339850Y-47567852D01*
X238339850Y-47567852D02*
X238282707Y-47339281D01*
X238282707Y-47339281D02*
X238225564Y-47224995D01*
X238225564Y-47224995D02*
X238168422Y-47167852D01*
X238168422Y-47167852D02*
X238054136Y-47110709D01*
X237196993Y-47224995D02*
X237139850Y-47167852D01*
X237139850Y-47167852D02*
X237025565Y-47110709D01*
X237025565Y-47110709D02*
X236739850Y-47110709D01*
X236739850Y-47110709D02*
X236625565Y-47167852D01*
X236625565Y-47167852D02*
X236568422Y-47224995D01*
X236568422Y-47224995D02*
X236511279Y-47339281D01*
X236511279Y-47339281D02*
X236511279Y-47453567D01*
X236511279Y-47453567D02*
X236568422Y-47624995D01*
X236568422Y-47624995D02*
X237254136Y-48310709D01*
X237254136Y-48310709D02*
X236511279Y-48310709D01*
X235996993Y-48196424D02*
X235939850Y-48253567D01*
X235939850Y-48253567D02*
X235996993Y-48310709D01*
X235996993Y-48310709D02*
X236054136Y-48253567D01*
X236054136Y-48253567D02*
X235996993Y-48196424D01*
X235996993Y-48196424D02*
X235996993Y-48310709D01*
X235196993Y-47110709D02*
X235082707Y-47110709D01*
X235082707Y-47110709D02*
X234968421Y-47167852D01*
X234968421Y-47167852D02*
X234911279Y-47224995D01*
X234911279Y-47224995D02*
X234854136Y-47339281D01*
X234854136Y-47339281D02*
X234796993Y-47567852D01*
X234796993Y-47567852D02*
X234796993Y-47853567D01*
X234796993Y-47853567D02*
X234854136Y-48082138D01*
X234854136Y-48082138D02*
X234911279Y-48196424D01*
X234911279Y-48196424D02*
X234968421Y-48253567D01*
X234968421Y-48253567D02*
X235082707Y-48310709D01*
X235082707Y-48310709D02*
X235196993Y-48310709D01*
X235196993Y-48310709D02*
X235311279Y-48253567D01*
X235311279Y-48253567D02*
X235368421Y-48196424D01*
X235368421Y-48196424D02*
X235425564Y-48082138D01*
X235425564Y-48082138D02*
X235482707Y-47853567D01*
X235482707Y-47853567D02*
X235482707Y-47567852D01*
X235482707Y-47567852D02*
X235425564Y-47339281D01*
X235425564Y-47339281D02*
X235368421Y-47224995D01*
X235368421Y-47224995D02*
X235311279Y-47167852D01*
X235311279Y-47167852D02*
X235196993Y-47110709D01*
X233768422Y-47110709D02*
X233996993Y-47110709D01*
X233996993Y-47110709D02*
X234111279Y-47167852D01*
X234111279Y-47167852D02*
X234168422Y-47224995D01*
X234168422Y-47224995D02*
X234282707Y-47396424D01*
X234282707Y-47396424D02*
X234339850Y-47624995D01*
X234339850Y-47624995D02*
X234339850Y-48082138D01*
X234339850Y-48082138D02*
X234282707Y-48196424D01*
X234282707Y-48196424D02*
X234225564Y-48253567D01*
X234225564Y-48253567D02*
X234111279Y-48310709D01*
X234111279Y-48310709D02*
X233882707Y-48310709D01*
X233882707Y-48310709D02*
X233768422Y-48253567D01*
X233768422Y-48253567D02*
X233711279Y-48196424D01*
X233711279Y-48196424D02*
X233654136Y-48082138D01*
X233654136Y-48082138D02*
X233654136Y-47796424D01*
X233654136Y-47796424D02*
X233711279Y-47682138D01*
X233711279Y-47682138D02*
X233768422Y-47624995D01*
X233768422Y-47624995D02*
X233882707Y-47567852D01*
X233882707Y-47567852D02*
X234111279Y-47567852D01*
X234111279Y-47567852D02*
X234225564Y-47624995D01*
X234225564Y-47624995D02*
X234282707Y-47682138D01*
X234282707Y-47682138D02*
X234339850Y-47796424D01*
X233139850Y-48196424D02*
X233082707Y-48253567D01*
X233082707Y-48253567D02*
X233139850Y-48310709D01*
X233139850Y-48310709D02*
X233196993Y-48253567D01*
X233196993Y-48253567D02*
X233139850Y-48196424D01*
X233139850Y-48196424D02*
X233139850Y-48310709D01*
X232625564Y-47224995D02*
X232568421Y-47167852D01*
X232568421Y-47167852D02*
X232454136Y-47110709D01*
X232454136Y-47110709D02*
X232168421Y-47110709D01*
X232168421Y-47110709D02*
X232054136Y-47167852D01*
X232054136Y-47167852D02*
X231996993Y-47224995D01*
X231996993Y-47224995D02*
X231939850Y-47339281D01*
X231939850Y-47339281D02*
X231939850Y-47453567D01*
X231939850Y-47453567D02*
X231996993Y-47624995D01*
X231996993Y-47624995D02*
X232682707Y-48310709D01*
X232682707Y-48310709D02*
X231939850Y-48310709D01*
X231196993Y-47110709D02*
X231082707Y-47110709D01*
X231082707Y-47110709D02*
X230968421Y-47167852D01*
X230968421Y-47167852D02*
X230911279Y-47224995D01*
X230911279Y-47224995D02*
X230854136Y-47339281D01*
X230854136Y-47339281D02*
X230796993Y-47567852D01*
X230796993Y-47567852D02*
X230796993Y-47853567D01*
X230796993Y-47853567D02*
X230854136Y-48082138D01*
X230854136Y-48082138D02*
X230911279Y-48196424D01*
X230911279Y-48196424D02*
X230968421Y-48253567D01*
X230968421Y-48253567D02*
X231082707Y-48310709D01*
X231082707Y-48310709D02*
X231196993Y-48310709D01*
X231196993Y-48310709D02*
X231311279Y-48253567D01*
X231311279Y-48253567D02*
X231368421Y-48196424D01*
X231368421Y-48196424D02*
X231425564Y-48082138D01*
X231425564Y-48082138D02*
X231482707Y-47853567D01*
X231482707Y-47853567D02*
X231482707Y-47567852D01*
X231482707Y-47567852D02*
X231425564Y-47339281D01*
X231425564Y-47339281D02*
X231368421Y-47224995D01*
X231368421Y-47224995D02*
X231311279Y-47167852D01*
X231311279Y-47167852D02*
X231196993Y-47110709D01*
X230339850Y-47224995D02*
X230282707Y-47167852D01*
X230282707Y-47167852D02*
X230168422Y-47110709D01*
X230168422Y-47110709D02*
X229882707Y-47110709D01*
X229882707Y-47110709D02*
X229768422Y-47167852D01*
X229768422Y-47167852D02*
X229711279Y-47224995D01*
X229711279Y-47224995D02*
X229654136Y-47339281D01*
X229654136Y-47339281D02*
X229654136Y-47453567D01*
X229654136Y-47453567D02*
X229711279Y-47624995D01*
X229711279Y-47624995D02*
X230396993Y-48310709D01*
X230396993Y-48310709D02*
X229654136Y-48310709D01*
X228625565Y-47110709D02*
X228854136Y-47110709D01*
X228854136Y-47110709D02*
X228968422Y-47167852D01*
X228968422Y-47167852D02*
X229025565Y-47224995D01*
X229025565Y-47224995D02*
X229139850Y-47396424D01*
X229139850Y-47396424D02*
X229196993Y-47624995D01*
X229196993Y-47624995D02*
X229196993Y-48082138D01*
X229196993Y-48082138D02*
X229139850Y-48196424D01*
X229139850Y-48196424D02*
X229082707Y-48253567D01*
X229082707Y-48253567D02*
X228968422Y-48310709D01*
X228968422Y-48310709D02*
X228739850Y-48310709D01*
X228739850Y-48310709D02*
X228625565Y-48253567D01*
X228625565Y-48253567D02*
X228568422Y-48196424D01*
X228568422Y-48196424D02*
X228511279Y-48082138D01*
X228511279Y-48082138D02*
X228511279Y-47796424D01*
X228511279Y-47796424D02*
X228568422Y-47682138D01*
X228568422Y-47682138D02*
X228625565Y-47624995D01*
X228625565Y-47624995D02*
X228739850Y-47567852D01*
X228739850Y-47567852D02*
X228968422Y-47567852D01*
X228968422Y-47567852D02*
X229082707Y-47624995D01*
X229082707Y-47624995D02*
X229139850Y-47682138D01*
X229139850Y-47682138D02*
X229196993Y-47796424D01*
D11*
%TO.C,J2*%
X270800000Y-29020000D03*
D12*
X270800000Y-31560000D03*
X270800000Y-34100000D03*
X270800000Y-36640000D03*
X270800000Y-39180000D03*
X270800000Y-41720000D03*
%TD*%
D13*
%TO.C,U3*%
X243150000Y-43500000D03*
D14*
X245690000Y-43500000D03*
X248230000Y-43500000D03*
X250770000Y-43500000D03*
X253310000Y-43500000D03*
X255850000Y-43500000D03*
X255850000Y-28260000D03*
X253310000Y-28260000D03*
X250770000Y-28260000D03*
X248230000Y-28260000D03*
X245690000Y-28260000D03*
X243150000Y-28260000D03*
%TD*%
D15*
%TO.C,R8*%
X249000000Y-48500000D03*
X249000000Y-51600000D03*
%TD*%
D16*
%TO.C,U2*%
X232500000Y-31690000D03*
X232500000Y-32960000D03*
X232500000Y-34230000D03*
X232500000Y-35500000D03*
X232500000Y-36770000D03*
X232500000Y-38040000D03*
X232500000Y-39310000D03*
X232500000Y-40580000D03*
X227550000Y-40580000D03*
X227550000Y-39310000D03*
X227550000Y-38040000D03*
X227550000Y-36770000D03*
X227550000Y-35500000D03*
X227550000Y-34230000D03*
X227550000Y-32960000D03*
X227550000Y-31690000D03*
%TD*%
D15*
%TO.C,R4*%
X245500000Y-48550000D03*
X245500000Y-51650000D03*
%TD*%
D17*
%TO.C,R1*%
X245000000Y-23050000D03*
X245000000Y-19950000D03*
%TD*%
%TO.C,R2*%
X255750000Y-23050000D03*
X255750000Y-19950000D03*
%TD*%
D15*
%TO.C,R7*%
X256500000Y-48500000D03*
X256500000Y-51600000D03*
%TD*%
D18*
%TO.C,Q4*%
X252050000Y-37625000D03*
X253950000Y-37625000D03*
X253000000Y-39500000D03*
%TD*%
D19*
%TO.C,R11*%
X239000000Y-39000000D03*
X235900000Y-39000000D03*
%TD*%
D15*
%TO.C,R3*%
X252500000Y-48600000D03*
X252500000Y-51700000D03*
%TD*%
D19*
%TO.C,R12*%
X239000000Y-42500000D03*
X235900000Y-42500000D03*
%TD*%
D20*
%TO.C,U1*%
X258525000Y-40445000D03*
X258525000Y-39175000D03*
X258525000Y-37905000D03*
X258525000Y-36635000D03*
X258525000Y-35365000D03*
X258525000Y-34095000D03*
X258525000Y-32825000D03*
X258525000Y-31555000D03*
X263475000Y-31555000D03*
X263475000Y-32825000D03*
X263475000Y-34095000D03*
X263475000Y-35365000D03*
X263475000Y-36635000D03*
X263475000Y-37905000D03*
X263475000Y-39175000D03*
X263475000Y-40445000D03*
%TD*%
D15*
%TO.C,R5*%
X242000000Y-48500000D03*
X242000000Y-51600000D03*
%TD*%
D18*
%TO.C,Q1*%
X244550000Y-32125000D03*
X246450000Y-32125000D03*
X245500000Y-34000000D03*
%TD*%
%TO.C,Q3*%
X252000000Y-32000000D03*
X253900000Y-32000000D03*
X252950000Y-33875000D03*
%TD*%
D17*
%TO.C,R6*%
X248950000Y-23050000D03*
X248950000Y-19950000D03*
%TD*%
D19*
%TO.C,R10*%
X239000000Y-35000000D03*
X235900000Y-35000000D03*
%TD*%
%TO.C,R9*%
X239000000Y-31000000D03*
X235900000Y-31000000D03*
%TD*%
D18*
%TO.C,Q2*%
X244550000Y-37562500D03*
X246450000Y-37562500D03*
X245500000Y-39437500D03*
%TD*%
M02*
