%TF.GenerationSoftware,KiCad,Pcbnew,10.0.3*%
%TF.CreationDate,2026-06-03T19:39:48+03:00*%
%TF.ProjectId,KYX-5361AG_7-SEG-LED_v2,4b59582d-3533-4363-9141-475f372d5345,rev?*%
%TF.SameCoordinates,Original*%
%TF.FileFunction,Copper,L1,Top*%
%TF.FilePolarity,Positive*%
%FSLAX46Y46*%
G04 Gerber Fmt 4.6, Leading zero omitted, Abs format (unit mm)*
G04 Created by KiCad (PCBNEW 10.0.3) date 2026-06-03 19:39:48*
%MOMM*%
%LPD*%
G01*
G04 APERTURE LIST*
%TA.AperFunction,ComponentPad*%
%ADD10R,1.700000X1.700000*%
%TD*%
%TA.AperFunction,ComponentPad*%
%ADD11C,1.700000*%
%TD*%
%TA.AperFunction,ComponentPad*%
%ADD12R,1.500000X1.500000*%
%TD*%
%TA.AperFunction,ComponentPad*%
%ADD13C,1.500000*%
%TD*%
%TA.AperFunction,ViaPad*%
%ADD14C,0.600000*%
%TD*%
%TA.AperFunction,Conductor*%
%ADD15C,0.300000*%
%TD*%
%TA.AperFunction,Conductor*%
%ADD16C,0.600000*%
%TD*%
%TA.AperFunction,Conductor*%
%ADD17C,1.000000*%
%TD*%
%TA.AperFunction,Conductor*%
%ADD18C,0.500000*%
%TD*%
G04 APERTURE END LIST*
D10*
%TO.P,J2,1,Pin_1_1*%
%TO.N,VCC*%
X270800000Y-29020000D03*
D11*
%TO.P,J2,2,Pin_2_2*%
%TO.N,/DATA*%
X270800000Y-31560000D03*
%TO.P,J2,3,Pin_3_3*%
%TO.N,/CLOCK*%
X270800000Y-34100000D03*
%TO.P,J2,4,Pin_4_4*%
%TO.N,/LATCH*%
X270800000Y-36640000D03*
%TO.P,J2,5,Pin_5_5*%
%TO.N,GND*%
X270800000Y-39180000D03*
%TO.P,J2,6,Pin_6_6*%
%TO.N,/DOUT*%
X270800000Y-41720000D03*
%TD*%
D12*
%TO.P,U3,1,e_1*%
%TO.N,Net-(U3-e)*%
X243150000Y-43500000D03*
D13*
%TO.P,U3,2,d_2*%
%TO.N,Net-(U3-d)*%
X245690000Y-43500000D03*
%TO.P,U3,3,DPX_3*%
%TO.N,Net-(U3-DPX)*%
X248230000Y-43500000D03*
%TO.P,U3,4,c_4*%
%TO.N,Net-(U3-c)*%
X250770000Y-43500000D03*
%TO.P,U3,5,g_5*%
%TO.N,Net-(U3-g)*%
X253310000Y-43500000D03*
%TO.P,U3,6,CC4_6*%
%TO.N,Net-(Q4-C)*%
X255850000Y-43500000D03*
%TO.P,U3,7,b_7*%
%TO.N,Net-(U3-b)*%
X255850000Y-28260000D03*
%TO.P,U3,8,CC3_8*%
%TO.N,Net-(Q3-C)*%
X253310000Y-28260000D03*
%TO.P,U3,9,CC2_9*%
%TO.N,Net-(Q2-C)*%
X250770000Y-28260000D03*
%TO.P,U3,10,f_10*%
%TO.N,Net-(U3-f)*%
X248230000Y-28260000D03*
%TO.P,U3,11,a_11*%
%TO.N,Net-(U3-a)*%
X245690000Y-28260000D03*
%TO.P,U3,12,CC1_12*%
%TO.N,Net-(Q1-C)*%
X243150000Y-28260000D03*
%TD*%
D14*
%TO.N,*%
X254600000Y-27000000D03*
X246900000Y-27000000D03*
X249500000Y-27000000D03*
X244400000Y-27000000D03*
%TO.N,Net-(Q4-C)*%
X253290380Y-41490380D03*
%TO.N,GND*%
X257300000Y-46800000D03*
X240700000Y-54300000D03*
X226100000Y-42400000D03*
X259200000Y-42400000D03*
X239700000Y-25200000D03*
X250700000Y-53100000D03*
X258700000Y-30300000D03*
X230200000Y-43300000D03*
X247200000Y-46900000D03*
X229300000Y-35500000D03*
X247100000Y-30100000D03*
X239700000Y-17300000D03*
X247000000Y-23500000D03*
X253800000Y-24100000D03*
X243800000Y-46800000D03*
X250800000Y-24100000D03*
X244100000Y-53500000D03*
X268200000Y-32600000D03*
X226200000Y-25400000D03*
X265400000Y-24700000D03*
X250500000Y-31200000D03*
X234320000Y-40580000D03*
X254400000Y-47100000D03*
X265400000Y-29000000D03*
X266600000Y-54100000D03*
X240200000Y-46600000D03*
%TO.N,VCC*%
X225710000Y-39310000D03*
X227600000Y-30100000D03*
%TO.N,/CLOCK*%
X229300000Y-38000000D03*
%TO.N,/LATCH*%
X229270000Y-36770000D03*
%TO.N,Net-(U1-QB)*%
X256700000Y-35600000D03*
X259200000Y-27900000D03*
%TO.N,/DOUT*%
X240800000Y-44400000D03*
%TD*%
%TO.N,Net-(Q4-C)*%
D15*
X254034834Y-41684834D02*
X255850000Y-43500000D01*
X253565380Y-41490380D02*
X253290380Y-41490380D01*
X254034834Y-41684834D02*
G75*
G03*
X253565380Y-41490397I-469434J-469466D01*
G01*
%TO.N,GND*%
D16*
X259363603Y-29636396D02*
X258700000Y-30300000D01*
X259098642Y-27099996D02*
X259694066Y-27099996D01*
X260900000Y-29000000D02*
X261550000Y-29000000D01*
X254546006Y-30099998D02*
X254013539Y-30099999D01*
X259714310Y-27108381D02*
X259815552Y-27108381D01*
X272722045Y-38677954D02*
X272960000Y-38440000D01*
X237146036Y-35500000D02*
X229300000Y-35500000D01*
X265400000Y-24700000D02*
X265300000Y-24700000D01*
X268375908Y-40600000D02*
X234354142Y-40600000D01*
X253747307Y-30099999D02*
X252682376Y-30100000D01*
X270297954Y-39682045D02*
X270089999Y-39889999D01*
X262050000Y-29000000D02*
X265400000Y-29000000D01*
X273700000Y-36653481D02*
X273700000Y-28626345D01*
X261623223Y-28323223D02*
X260941421Y-27641421D01*
X258475735Y-27492894D02*
X256615618Y-29353012D01*
X240993792Y-33906207D02*
X243986827Y-30913172D01*
X254546006Y-30099998D02*
X254812239Y-30099998D01*
X254013539Y-30099999D02*
X253747307Y-30099999D01*
X234320000Y-40580000D02*
X234330000Y-40590000D01*
X258592886Y-27375737D02*
X258705984Y-27262640D01*
X247100000Y-30100000D02*
X252682376Y-30100000D01*
X262050000Y-29000000D02*
X261550000Y-29000000D01*
X265400000Y-24700000D02*
X269773654Y-24700000D01*
X247100000Y-30100000D02*
X245950000Y-30100000D01*
X268375908Y-40600000D02*
G75*
G03*
X270089998Y-39889998I-8J2424100D01*
G01*
X260941421Y-27641421D02*
G75*
G03*
X259815550Y-27108402I-1309621J-1310679D01*
G01*
X261800000Y-28750000D02*
G75*
G02*
X261550000Y-29000000I-250000J0D01*
G01*
X258592886Y-27375737D02*
G75*
G02*
X258534312Y-27400018I-58586J58537D01*
G01*
X259714310Y-27108381D02*
G75*
G02*
X259704190Y-27104186I-10J14281D01*
G01*
X271510000Y-39180000D02*
G75*
G03*
X272722047Y-38677956I0J1714100D01*
G01*
X272550000Y-25850000D02*
G75*
G02*
X273699952Y-28626345I-2776400J-2776300D01*
G01*
X258705984Y-27262640D02*
G75*
G02*
X259098642Y-27100026I392616J-392660D01*
G01*
X272960000Y-38440000D02*
G75*
G03*
X273699993Y-36653481I-1786500J1786500D01*
G01*
X256615618Y-29353012D02*
G75*
G02*
X254812239Y-30100014I-1803418J1803412D01*
G01*
X261800000Y-28750000D02*
G75*
G03*
X262050000Y-29000000I250000J0D01*
G01*
X261800000Y-28750000D02*
G75*
G03*
X261623233Y-28323213I-603600J0D01*
G01*
X234354142Y-40600000D02*
G75*
G02*
X234329988Y-40590012I-42J34100D01*
G01*
X258475735Y-27492894D02*
G75*
G03*
X258499993Y-27434312I-58635J58594D01*
G01*
X272550000Y-25850000D02*
G75*
G03*
X269773654Y-24700019I-2776300J-2776300D01*
G01*
X240993792Y-33906207D02*
G75*
G02*
X237146036Y-35500010I-3847792J3847807D01*
G01*
X245950000Y-30100000D02*
G75*
G03*
X243986837Y-30913182I0J-2776300D01*
G01*
X258534312Y-27400000D02*
G75*
G03*
X258500000Y-27434312I-12J-34300D01*
G01*
X271510000Y-39180000D02*
G75*
G03*
X270297953Y-39682044I0J-1714100D01*
G01*
X259704188Y-27104188D02*
G75*
G03*
X259694066Y-27100016I-10088J-10112D01*
G01*
X259363603Y-29636396D02*
G75*
G02*
X260900000Y-29000002I1536397J-1536404D01*
G01*
%TO.N,VCC*%
D17*
X270981915Y-28834358D02*
X270981915Y-28830632D01*
D16*
X225655000Y-39255000D02*
X225710000Y-39310000D01*
D17*
X243214213Y-25800000D02*
X266561522Y-25800000D01*
X270145856Y-27545857D02*
X269985569Y-27385570D01*
X270145856Y-27545857D02*
X270396423Y-27796426D01*
X270979279Y-28840720D02*
X270800000Y-29020000D01*
X227600000Y-30100000D02*
X227050000Y-30100000D01*
X226111091Y-30488908D02*
X226050000Y-30550000D01*
X269700000Y-27100000D02*
X269795190Y-27195190D01*
X225600000Y-39122218D02*
X225600000Y-31636396D01*
X270521707Y-27921711D02*
X270396423Y-27796426D01*
X238385786Y-27800000D02*
X231526345Y-27800000D01*
X227600000Y-30100000D02*
X228750000Y-28950000D01*
X269795190Y-27195190D02*
X269985569Y-27385570D01*
X270981915Y-28834358D02*
G75*
G02*
X270979304Y-28840745I-9015J-42D01*
G01*
X225600000Y-31636396D02*
G75*
G02*
X226050001Y-30550001I1536400J-4D01*
G01*
X269700000Y-27100000D02*
G75*
G03*
X266561522Y-25799991I-3138500J-3138500D01*
G01*
X270521707Y-27921711D02*
G75*
G02*
X270981910Y-28830633I-1158807J-1157689D01*
G01*
X225600000Y-39122218D02*
G75*
G03*
X225655005Y-39254995I187800J18D01*
G01*
X238385786Y-27800000D02*
G75*
G03*
X240800004Y-26800004I14J3414200D01*
G01*
X243214213Y-25800000D02*
G75*
G03*
X240799996Y-26799996I-13J-3414200D01*
G01*
X226111091Y-30488908D02*
G75*
G02*
X227050000Y-30099994I938909J-938892D01*
G01*
X231526345Y-27800000D02*
G75*
G03*
X228749987Y-28949987I-45J-3926300D01*
G01*
%TO.N,/CLOCK*%
D16*
X233107106Y-37000000D02*
X256863603Y-37000000D01*
X229300000Y-38000000D02*
X230692893Y-38000000D01*
X267385786Y-36100000D02*
X259036396Y-36100000D01*
X269800000Y-35100000D02*
X270800000Y-34100000D01*
X257950000Y-36550000D02*
G75*
G02*
X259036396Y-36099998I1086400J-1086400D01*
G01*
X231900000Y-37500000D02*
G75*
G02*
X230692893Y-37999997I-1207100J1207100D01*
G01*
X267385786Y-36100000D02*
G75*
G03*
X269800004Y-35100004I14J3414200D01*
G01*
X231900000Y-37500000D02*
G75*
G02*
X233107106Y-37000003I1207100J-1207100D01*
G01*
X257950000Y-36550000D02*
G75*
G02*
X256863603Y-37000002I-1086400J1086400D01*
G01*
%TO.N,/LATCH*%
X269470000Y-37970000D02*
X270800000Y-36640000D01*
X228364999Y-37034999D02*
X228403725Y-36996274D01*
X229124264Y-39300000D02*
X266259095Y-39300000D01*
X228100000Y-37674766D02*
X228100000Y-38275735D01*
X229270000Y-36770000D02*
X228950000Y-36770000D01*
X228950000Y-36770000D02*
G75*
G03*
X228403736Y-36996285I0J-772500D01*
G01*
X228100000Y-37674766D02*
G75*
G02*
X228365010Y-37035010I904800J-34D01*
G01*
X269470000Y-37970000D02*
G75*
G02*
X266259095Y-39299998I-3210900J3210900D01*
G01*
X228400000Y-39000000D02*
G75*
G02*
X228099985Y-38275735I724300J724300D01*
G01*
X228400000Y-39000000D02*
G75*
G03*
X229124264Y-39300015I724300J724300D01*
G01*
%TO.N,Net-(U1-QB)*%
D18*
X259200000Y-27900000D02*
X257950000Y-29150000D01*
X256700000Y-35600000D02*
X256700000Y-32167766D01*
X257950000Y-29150000D02*
G75*
G03*
X256699986Y-32167766I3017800J-3017800D01*
G01*
%TO.N,/DOUT*%
D16*
X268613792Y-43906207D02*
X270800000Y-41720000D01*
X264766036Y-45500000D02*
X242677817Y-45500000D01*
X240800000Y-44400000D02*
X241350000Y-44950000D01*
X242677817Y-45500000D02*
G75*
G02*
X241349995Y-44950005I-17J1877800D01*
G01*
X264766036Y-45500000D02*
G75*
G03*
X268613785Y-43906200I-36J5441600D01*
G01*
%TD*%
%TA.AperFunction,Conductor*%
%TO.N,GND*%
G36*
X271503736Y-16458226D02*
G01*
X271793796Y-16475771D01*
X271808659Y-16477576D01*
X272090797Y-16529280D01*
X272105334Y-16532863D01*
X272379182Y-16618198D01*
X272393163Y-16623500D01*
X272654734Y-16741224D01*
X272667987Y-16748180D01*
X272913458Y-16896571D01*
X272925776Y-16905073D01*
X273151573Y-17081974D01*
X273162781Y-17091904D01*
X273365595Y-17294718D01*
X273375525Y-17305926D01*
X273493884Y-17457000D01*
X273552422Y-17531717D01*
X273560928Y-17544041D01*
X273709319Y-17789512D01*
X273716277Y-17802769D01*
X273833994Y-18064323D01*
X273839304Y-18078325D01*
X273924635Y-18352164D01*
X273928219Y-18366702D01*
X273979923Y-18648840D01*
X273981728Y-18663705D01*
X273999274Y-18953763D01*
X273999500Y-18961250D01*
X273999500Y-52953749D01*
X273999274Y-52961236D01*
X273981728Y-53251294D01*
X273979923Y-53266159D01*
X273928219Y-53548297D01*
X273924635Y-53562835D01*
X273839304Y-53836674D01*
X273833994Y-53850676D01*
X273716277Y-54112230D01*
X273709319Y-54125487D01*
X273560928Y-54370958D01*
X273552422Y-54383282D01*
X273375525Y-54609073D01*
X273365595Y-54620281D01*
X273162781Y-54823095D01*
X273151573Y-54833025D01*
X272925782Y-55009922D01*
X272913458Y-55018428D01*
X272667987Y-55166819D01*
X272654730Y-55173777D01*
X272393176Y-55291494D01*
X272379174Y-55296804D01*
X272105335Y-55382135D01*
X272090797Y-55385719D01*
X271808659Y-55437423D01*
X271793794Y-55439228D01*
X271503736Y-55456774D01*
X271496249Y-55457000D01*
X227503751Y-55457000D01*
X227496264Y-55456774D01*
X227206205Y-55439228D01*
X227191340Y-55437423D01*
X226909202Y-55385719D01*
X226894664Y-55382135D01*
X226620825Y-55296804D01*
X226606827Y-55291495D01*
X226454096Y-55222756D01*
X226345269Y-55173777D01*
X226332012Y-55166819D01*
X226086541Y-55018428D01*
X226074217Y-55009922D01*
X225848426Y-54833025D01*
X225837218Y-54823095D01*
X225634404Y-54620281D01*
X225624474Y-54609073D01*
X225447573Y-54383276D01*
X225439071Y-54370958D01*
X225290680Y-54125487D01*
X225283722Y-54112230D01*
X225166000Y-53850663D01*
X225160698Y-53836682D01*
X225075363Y-53562834D01*
X225071780Y-53548297D01*
X225020076Y-53266159D01*
X225018271Y-53251294D01*
X225000726Y-52961236D01*
X225000500Y-52953749D01*
X225000500Y-51817068D01*
X225999500Y-51817068D01*
X225999500Y-52097931D01*
X226030942Y-52376994D01*
X226030945Y-52377012D01*
X226093439Y-52650817D01*
X226093443Y-52650829D01*
X226186200Y-52915911D01*
X226308053Y-53168942D01*
X226308055Y-53168945D01*
X226457477Y-53406748D01*
X226632584Y-53626325D01*
X226831175Y-53824916D01*
X227050752Y-54000023D01*
X227288555Y-54149445D01*
X227541592Y-54271301D01*
X227740680Y-54340965D01*
X227806670Y-54364056D01*
X227806682Y-54364060D01*
X228080491Y-54426555D01*
X228080497Y-54426555D01*
X228080505Y-54426557D01*
X228266547Y-54447518D01*
X228359569Y-54457999D01*
X228359572Y-54458000D01*
X228359575Y-54458000D01*
X228640428Y-54458000D01*
X228640429Y-54457999D01*
X228783055Y-54441929D01*
X228919494Y-54426557D01*
X228919499Y-54426556D01*
X228919509Y-54426555D01*
X229193318Y-54364060D01*
X229458408Y-54271301D01*
X229711445Y-54149445D01*
X229949248Y-54000023D01*
X230168825Y-53824916D01*
X230367416Y-53626325D01*
X230542523Y-53406748D01*
X230691945Y-53168945D01*
X230813801Y-52915908D01*
X230906560Y-52650818D01*
X230969055Y-52377009D01*
X231000500Y-52097925D01*
X231000500Y-51817075D01*
X231000499Y-51817068D01*
X267999500Y-51817068D01*
X267999500Y-52097931D01*
X268030942Y-52376994D01*
X268030945Y-52377012D01*
X268093439Y-52650817D01*
X268093443Y-52650829D01*
X268186200Y-52915911D01*
X268308053Y-53168942D01*
X268308055Y-53168945D01*
X268457477Y-53406748D01*
X268632584Y-53626325D01*
X268831175Y-53824916D01*
X269050752Y-54000023D01*
X269288555Y-54149445D01*
X269541592Y-54271301D01*
X269740680Y-54340965D01*
X269806670Y-54364056D01*
X269806682Y-54364060D01*
X270080491Y-54426555D01*
X270080497Y-54426555D01*
X270080505Y-54426557D01*
X270266547Y-54447518D01*
X270359569Y-54457999D01*
X270359572Y-54458000D01*
X270359575Y-54458000D01*
X270640428Y-54458000D01*
X270640429Y-54457999D01*
X270783055Y-54441929D01*
X270919494Y-54426557D01*
X270919499Y-54426556D01*
X270919509Y-54426555D01*
X271193318Y-54364060D01*
X271458408Y-54271301D01*
X271711445Y-54149445D01*
X271949248Y-54000023D01*
X272168825Y-53824916D01*
X272367416Y-53626325D01*
X272542523Y-53406748D01*
X272691945Y-53168945D01*
X272813801Y-52915908D01*
X272906560Y-52650818D01*
X272969055Y-52377009D01*
X273000500Y-52097925D01*
X273000500Y-51817075D01*
X272969055Y-51537991D01*
X272906560Y-51264182D01*
X272813801Y-50999092D01*
X272691945Y-50746055D01*
X272542523Y-50508252D01*
X272367416Y-50288675D01*
X272168825Y-50090084D01*
X271949248Y-49914977D01*
X271711445Y-49765555D01*
X271711442Y-49765553D01*
X271458411Y-49643700D01*
X271193329Y-49550943D01*
X271193317Y-49550939D01*
X270919512Y-49488445D01*
X270919494Y-49488442D01*
X270640431Y-49457000D01*
X270640425Y-49457000D01*
X270359575Y-49457000D01*
X270359568Y-49457000D01*
X270080505Y-49488442D01*
X270080487Y-49488445D01*
X269806682Y-49550939D01*
X269806670Y-49550943D01*
X269541588Y-49643700D01*
X269288557Y-49765553D01*
X269050753Y-49914976D01*
X268831175Y-50090083D01*
X268632583Y-50288675D01*
X268457476Y-50508253D01*
X268308053Y-50746057D01*
X268186200Y-50999088D01*
X268093443Y-51264170D01*
X268093439Y-51264182D01*
X268030945Y-51537987D01*
X268030942Y-51538005D01*
X267999500Y-51817068D01*
X231000499Y-51817068D01*
X230969055Y-51537991D01*
X230906560Y-51264182D01*
X230813801Y-50999092D01*
X230691945Y-50746055D01*
X230542523Y-50508252D01*
X230367416Y-50288675D01*
X230168825Y-50090084D01*
X229949248Y-49914977D01*
X229711445Y-49765555D01*
X229711442Y-49765553D01*
X229458411Y-49643700D01*
X229193329Y-49550943D01*
X229193317Y-49550939D01*
X228919512Y-49488445D01*
X228919494Y-49488442D01*
X228640431Y-49457000D01*
X228640425Y-49457000D01*
X228359575Y-49457000D01*
X228359568Y-49457000D01*
X228080505Y-49488442D01*
X228080487Y-49488445D01*
X227806682Y-49550939D01*
X227806670Y-49550943D01*
X227541588Y-49643700D01*
X227288557Y-49765553D01*
X227050753Y-49914976D01*
X226831175Y-50090083D01*
X226632583Y-50288675D01*
X226457476Y-50508253D01*
X226308053Y-50746057D01*
X226186200Y-50999088D01*
X226093443Y-51264170D01*
X226093439Y-51264182D01*
X226030945Y-51537987D01*
X226030942Y-51538005D01*
X225999500Y-51817068D01*
X225000500Y-51817068D01*
X225000500Y-40250000D01*
X225020185Y-40182961D01*
X225072989Y-40137206D01*
X225142147Y-40127262D01*
X225174586Y-40136566D01*
X225279662Y-40182961D01*
X225335686Y-40207698D01*
X225335690Y-40207699D01*
X225335693Y-40207700D01*
X225443676Y-40233097D01*
X225516181Y-40250150D01*
X225701403Y-40258714D01*
X225885045Y-40233097D01*
X226060853Y-40174173D01*
X226222840Y-40083947D01*
X226365490Y-39965492D01*
X226483945Y-39822842D01*
X226574172Y-39660855D01*
X226633097Y-39485048D01*
X226658714Y-39301406D01*
X226650151Y-39116184D01*
X226607699Y-38935689D01*
X226607698Y-38935688D01*
X226607698Y-38935685D01*
X226606926Y-38933380D01*
X226606404Y-38930185D01*
X226606387Y-38930109D01*
X226606392Y-38930107D01*
X226600500Y-38893981D01*
X226600500Y-31642487D01*
X226601097Y-31630334D01*
X226601611Y-31625106D01*
X226609600Y-31543995D01*
X226614339Y-31520167D01*
X226637749Y-31442996D01*
X226647044Y-31420555D01*
X226685060Y-31349432D01*
X226698557Y-31329233D01*
X226753597Y-31262166D01*
X226761748Y-31253171D01*
X226774774Y-31240145D01*
X226812816Y-31202103D01*
X226824995Y-31191422D01*
X226873392Y-31154286D01*
X226901420Y-31138104D01*
X226950202Y-31117899D01*
X226981463Y-31109522D01*
X227041938Y-31101561D01*
X227058123Y-31100500D01*
X227698543Y-31100500D01*
X227742514Y-31091753D01*
X227869821Y-31066430D01*
X227891836Y-31062051D01*
X227983887Y-31023922D01*
X228073914Y-30986632D01*
X228237782Y-30877139D01*
X228377139Y-30737782D01*
X228377139Y-30737780D01*
X228387347Y-30727573D01*
X228387348Y-30727570D01*
X229455326Y-29659594D01*
X229459692Y-29655437D01*
X229665701Y-29468721D01*
X229675086Y-29461018D01*
X229895956Y-29297210D01*
X229906049Y-29290467D01*
X230141900Y-29149102D01*
X230152600Y-29143383D01*
X230401180Y-29025814D01*
X230412396Y-29021169D01*
X230671295Y-28928533D01*
X230682901Y-28925011D01*
X230949650Y-28858194D01*
X230961552Y-28855827D01*
X231233539Y-28815482D01*
X231245637Y-28814290D01*
X231481792Y-28802688D01*
X231523313Y-28800649D01*
X231529397Y-28800500D01*
X238578538Y-28800500D01*
X238578538Y-28800499D01*
X238962571Y-28766901D01*
X239342216Y-28699960D01*
X239714581Y-28600184D01*
X240076833Y-28468335D01*
X240426216Y-28305416D01*
X240760070Y-28112665D01*
X241075854Y-27891551D01*
X241371165Y-27643756D01*
X241505027Y-27509893D01*
X241510046Y-27505150D01*
X241549767Y-27469652D01*
X241704105Y-27331727D01*
X241714947Y-27323080D01*
X241924377Y-27174481D01*
X241936120Y-27167102D01*
X242160862Y-27042891D01*
X242173368Y-27036869D01*
X242365491Y-26957290D01*
X242410578Y-26938615D01*
X242423698Y-26934023D01*
X242499403Y-26912213D01*
X242569269Y-26912569D01*
X242627854Y-26950643D01*
X242656555Y-27014345D01*
X242646260Y-27083452D01*
X242600236Y-27136023D01*
X242590024Y-27141852D01*
X242494594Y-27190476D01*
X242414579Y-27248611D01*
X242335354Y-27306172D01*
X242335352Y-27306174D01*
X242335351Y-27306174D01*
X242196174Y-27445351D01*
X242196174Y-27445352D01*
X242196172Y-27445354D01*
X242152727Y-27505150D01*
X242080476Y-27604594D01*
X241991117Y-27779970D01*
X241930290Y-27967173D01*
X241899500Y-28161577D01*
X241899500Y-28358422D01*
X241930290Y-28552826D01*
X241991117Y-28740029D01*
X242080475Y-28915403D01*
X242080476Y-28915405D01*
X242196172Y-29074646D01*
X242335354Y-29213828D01*
X242494595Y-29329524D01*
X242577455Y-29371743D01*
X242669970Y-29418882D01*
X242669972Y-29418882D01*
X242669975Y-29418884D01*
X242756851Y-29447112D01*
X242857173Y-29479709D01*
X243051578Y-29510500D01*
X243051583Y-29510500D01*
X243248422Y-29510500D01*
X243442826Y-29479709D01*
X243630025Y-29418884D01*
X243805405Y-29329524D01*
X243964646Y-29213828D01*
X244103828Y-29074646D01*
X244219524Y-28915405D01*
X244253763Y-28848207D01*
X244309515Y-28738787D01*
X244357489Y-28687990D01*
X244425310Y-28671195D01*
X244491445Y-28693732D01*
X244530485Y-28738787D01*
X244620474Y-28915403D01*
X244630019Y-28928540D01*
X244736172Y-29074646D01*
X244875354Y-29213828D01*
X245034595Y-29329524D01*
X245117455Y-29371743D01*
X245209970Y-29418882D01*
X245209972Y-29418882D01*
X245209975Y-29418884D01*
X245296851Y-29447112D01*
X245397173Y-29479709D01*
X245591578Y-29510500D01*
X245591583Y-29510500D01*
X245788422Y-29510500D01*
X245982826Y-29479709D01*
X246170025Y-29418884D01*
X246345405Y-29329524D01*
X246504646Y-29213828D01*
X246643828Y-29074646D01*
X246759524Y-28915405D01*
X246793763Y-28848207D01*
X246849515Y-28738787D01*
X246897489Y-28687990D01*
X246965310Y-28671195D01*
X247031445Y-28693732D01*
X247070485Y-28738787D01*
X247160474Y-28915403D01*
X247170019Y-28928540D01*
X247276172Y-29074646D01*
X247415354Y-29213828D01*
X247574595Y-29329524D01*
X247657455Y-29371743D01*
X247749970Y-29418882D01*
X247749972Y-29418882D01*
X247749975Y-29418884D01*
X247836851Y-29447112D01*
X247937173Y-29479709D01*
X248131578Y-29510500D01*
X248131583Y-29510500D01*
X248328422Y-29510500D01*
X248522826Y-29479709D01*
X248710025Y-29418884D01*
X248885405Y-29329524D01*
X249044646Y-29213828D01*
X249183828Y-29074646D01*
X249299524Y-28915405D01*
X249333763Y-28848207D01*
X249389515Y-28738787D01*
X249437489Y-28687990D01*
X249505310Y-28671195D01*
X249571445Y-28693732D01*
X249610485Y-28738787D01*
X249700474Y-28915403D01*
X249710019Y-28928540D01*
X249816172Y-29074646D01*
X249955354Y-29213828D01*
X250114595Y-29329524D01*
X250197455Y-29371743D01*
X250289970Y-29418882D01*
X250289972Y-29418882D01*
X250289975Y-29418884D01*
X250376851Y-29447112D01*
X250477173Y-29479709D01*
X250671578Y-29510500D01*
X250671583Y-29510500D01*
X250868422Y-29510500D01*
X251062826Y-29479709D01*
X251250025Y-29418884D01*
X251425405Y-29329524D01*
X251584646Y-29213828D01*
X251723828Y-29074646D01*
X251839524Y-28915405D01*
X251873763Y-28848207D01*
X251929515Y-28738787D01*
X251977489Y-28687990D01*
X252045310Y-28671195D01*
X252111445Y-28693732D01*
X252150485Y-28738787D01*
X252240474Y-28915403D01*
X252250019Y-28928540D01*
X252356172Y-29074646D01*
X252495354Y-29213828D01*
X252654595Y-29329524D01*
X252737455Y-29371743D01*
X252829970Y-29418882D01*
X252829972Y-29418882D01*
X252829975Y-29418884D01*
X252916851Y-29447112D01*
X253017173Y-29479709D01*
X253211578Y-29510500D01*
X253211583Y-29510500D01*
X253408422Y-29510500D01*
X253602826Y-29479709D01*
X253790025Y-29418884D01*
X253965405Y-29329524D01*
X254124646Y-29213828D01*
X254263828Y-29074646D01*
X254379524Y-28915405D01*
X254413763Y-28848207D01*
X254469515Y-28738787D01*
X254517489Y-28687990D01*
X254585310Y-28671195D01*
X254651445Y-28693732D01*
X254690485Y-28738787D01*
X254780474Y-28915403D01*
X254790019Y-28928540D01*
X254896172Y-29074646D01*
X255035354Y-29213828D01*
X255194595Y-29329524D01*
X255277455Y-29371743D01*
X255369970Y-29418882D01*
X255369972Y-29418882D01*
X255369975Y-29418884D01*
X255456851Y-29447112D01*
X255557173Y-29479709D01*
X255751578Y-29510500D01*
X255751583Y-29510500D01*
X255948422Y-29510500D01*
X256142826Y-29479709D01*
X256330025Y-29418884D01*
X256505405Y-29329524D01*
X256570809Y-29282005D01*
X256636615Y-29258524D01*
X256704669Y-29274349D01*
X256753364Y-29324454D01*
X256767240Y-29392932D01*
X256749422Y-29447112D01*
X256585980Y-29713823D01*
X256585977Y-29713828D01*
X256406944Y-30065201D01*
X256256036Y-30429523D01*
X256159197Y-30727567D01*
X256134182Y-30804555D01*
X256050608Y-31152668D01*
X256042125Y-31188001D01*
X255980439Y-31577475D01*
X255980439Y-31577476D01*
X255949500Y-31970592D01*
X255949500Y-35295396D01*
X255940062Y-35342844D01*
X255936454Y-35351557D01*
X255930262Y-35366506D01*
X255930260Y-35366511D01*
X255899500Y-35521153D01*
X255899500Y-35678846D01*
X255930261Y-35833489D01*
X255930264Y-35833501D01*
X255990602Y-35979172D01*
X255990610Y-35979187D01*
X256008933Y-36006608D01*
X256029812Y-36073285D01*
X256011328Y-36140666D01*
X255959350Y-36187356D01*
X255905832Y-36199500D01*
X232966276Y-36199500D01*
X232686419Y-36231031D01*
X232686405Y-36231034D01*
X232411815Y-36293707D01*
X232145972Y-36386729D01*
X231892220Y-36508930D01*
X231653740Y-36658778D01*
X231433537Y-36834383D01*
X231367422Y-36900500D01*
X231367421Y-36900500D01*
X231337410Y-36930511D01*
X231330261Y-36937120D01*
X231233205Y-37020014D01*
X231217462Y-37031452D01*
X231112803Y-37095586D01*
X231095467Y-37104419D01*
X230982066Y-37151392D01*
X230963560Y-37157405D01*
X230844207Y-37186059D01*
X230824990Y-37189103D01*
X230717824Y-37197537D01*
X230697744Y-37199118D01*
X230688017Y-37199500D01*
X230144129Y-37199500D01*
X230077090Y-37179815D01*
X230031335Y-37127011D01*
X230021391Y-37057853D01*
X230029568Y-37028048D01*
X230039735Y-37003501D01*
X230039737Y-37003497D01*
X230070500Y-36848842D01*
X230070500Y-36691158D01*
X230070500Y-36691155D01*
X230070499Y-36691153D01*
X230049061Y-36583378D01*
X230039737Y-36536503D01*
X230011759Y-36468958D01*
X229979397Y-36390827D01*
X229979390Y-36390814D01*
X229891789Y-36259711D01*
X229891786Y-36259707D01*
X229780292Y-36148213D01*
X229780288Y-36148210D01*
X229649185Y-36060609D01*
X229649172Y-36060602D01*
X229503501Y-36000264D01*
X229503489Y-36000261D01*
X229348845Y-35969500D01*
X229348842Y-35969500D01*
X228950004Y-35969500D01*
X228846900Y-35969500D01*
X228846899Y-35969500D01*
X228642467Y-35996413D01*
X228642460Y-35996414D01*
X228642457Y-35996415D01*
X228443276Y-36049785D01*
X228443260Y-36049790D01*
X228252773Y-36128691D01*
X228252764Y-36128696D01*
X228074185Y-36231800D01*
X228074176Y-36231806D01*
X227910591Y-36357329D01*
X227910584Y-36357335D01*
X227858458Y-36409461D01*
X227858456Y-36409465D01*
X227798962Y-36468958D01*
X227798959Y-36468959D01*
X227743232Y-36524685D01*
X227743220Y-36524698D01*
X227743217Y-36524702D01*
X227743214Y-36524705D01*
X227731571Y-36536348D01*
X227719926Y-36547993D01*
X227583847Y-36725336D01*
X227583842Y-36725343D01*
X227472077Y-36918925D01*
X227472070Y-36918939D01*
X227386537Y-37125435D01*
X227386533Y-37125448D01*
X227328676Y-37341371D01*
X227299500Y-37562992D01*
X227299499Y-37563008D01*
X227299500Y-37620821D01*
X227299500Y-38395328D01*
X227299501Y-38395345D01*
X227330720Y-38632481D01*
X227330721Y-38632486D01*
X227330722Y-38632492D01*
X227352582Y-38714075D01*
X227392632Y-38863545D01*
X227484166Y-39084530D01*
X227484174Y-39084546D01*
X227603768Y-39291687D01*
X227603779Y-39291703D01*
X227749387Y-39481465D01*
X227749389Y-39481467D01*
X227749390Y-39481468D01*
X227774469Y-39506547D01*
X227833962Y-39566040D01*
X227833963Y-39566041D01*
X227833962Y-39566041D01*
X227918531Y-39650608D01*
X227918538Y-39650614D01*
X227931886Y-39660856D01*
X228108305Y-39796227D01*
X228241443Y-39873094D01*
X228315452Y-39915824D01*
X228315468Y-39915832D01*
X228435359Y-39965492D01*
X228536454Y-40007367D01*
X228767506Y-40069277D01*
X229004661Y-40100499D01*
X229037810Y-40100499D01*
X229037826Y-40100500D01*
X229045422Y-40100500D01*
X266468954Y-40100500D01*
X266468960Y-40100500D01*
X266887394Y-40067568D01*
X267301955Y-40001908D01*
X267710087Y-39903924D01*
X268109273Y-39774221D01*
X268497051Y-39613598D01*
X268871032Y-39423045D01*
X269228910Y-39203738D01*
X269253116Y-39186150D01*
X269318919Y-39162671D01*
X269386973Y-39178495D01*
X269435669Y-39228600D01*
X269448757Y-39281451D01*
X269449617Y-39281384D01*
X269449999Y-39286244D01*
X269483242Y-39496127D01*
X269483242Y-39496130D01*
X269548904Y-39698217D01*
X269645375Y-39887550D01*
X269684728Y-39941716D01*
X270317037Y-39309408D01*
X270334075Y-39372993D01*
X270399901Y-39487007D01*
X270492993Y-39580099D01*
X270607007Y-39645925D01*
X270670590Y-39662962D01*
X270038282Y-40295269D01*
X270038282Y-40295270D01*
X270092452Y-40334626D01*
X270092451Y-40334626D01*
X270101495Y-40339234D01*
X270152292Y-40387208D01*
X270169087Y-40455029D01*
X270146550Y-40521164D01*
X270101499Y-40560202D01*
X270092182Y-40564949D01*
X269920213Y-40689890D01*
X269769890Y-40840213D01*
X269644951Y-41012179D01*
X269548444Y-41201585D01*
X269482753Y-41403760D01*
X269449500Y-41613713D01*
X269449500Y-41826287D01*
X269449499Y-41826287D01*
X269454948Y-41860686D01*
X269445993Y-41929979D01*
X269420156Y-41967764D01*
X268702570Y-42685351D01*
X268050870Y-43337051D01*
X268049629Y-43338292D01*
X268045757Y-43341996D01*
X267753239Y-43610039D01*
X267744952Y-43616993D01*
X267432330Y-43856876D01*
X267423469Y-43863081D01*
X267091120Y-44074810D01*
X267081752Y-44080218D01*
X266732233Y-44262167D01*
X266722429Y-44266739D01*
X266358369Y-44417538D01*
X266348203Y-44421238D01*
X265972394Y-44539729D01*
X265961946Y-44542529D01*
X265577224Y-44627821D01*
X265566570Y-44629699D01*
X265175898Y-44681132D01*
X265165122Y-44682075D01*
X264768738Y-44699382D01*
X264763329Y-44699500D01*
X256708140Y-44699500D01*
X256641101Y-44679815D01*
X256595346Y-44627011D01*
X256585402Y-44557853D01*
X256614427Y-44494297D01*
X256635250Y-44475185D01*
X256664646Y-44453828D01*
X256803828Y-44314646D01*
X256919524Y-44155405D01*
X257008884Y-43980025D01*
X257069709Y-43792826D01*
X257100500Y-43598422D01*
X257100500Y-43401577D01*
X257069709Y-43207173D01*
X257025791Y-43072009D01*
X257008884Y-43019975D01*
X257008882Y-43019972D01*
X257008882Y-43019970D01*
X256919523Y-42844594D01*
X256915183Y-42838620D01*
X256803828Y-42685354D01*
X256664646Y-42546172D01*
X256505405Y-42430476D01*
X256500184Y-42427816D01*
X256330029Y-42341117D01*
X256142826Y-42280290D01*
X255948422Y-42249500D01*
X255948417Y-42249500D01*
X255751583Y-42249500D01*
X255751578Y-42249500D01*
X255613588Y-42271355D01*
X255544294Y-42262400D01*
X255506509Y-42236563D01*
X254449503Y-41179557D01*
X254433891Y-41163945D01*
X254365162Y-41111207D01*
X254297204Y-41059060D01*
X254297186Y-41059048D01*
X254147984Y-40972906D01*
X254147983Y-40972905D01*
X253988787Y-40906963D01*
X253822357Y-40862369D01*
X253812412Y-40861059D01*
X253759710Y-40841223D01*
X253669564Y-40780989D01*
X253669552Y-40780982D01*
X253523881Y-40720644D01*
X253523869Y-40720641D01*
X253369225Y-40689880D01*
X253369222Y-40689880D01*
X253211538Y-40689880D01*
X253211535Y-40689880D01*
X253056890Y-40720641D01*
X253056878Y-40720644D01*
X252911207Y-40780982D01*
X252911194Y-40780989D01*
X252780091Y-40868590D01*
X252780087Y-40868593D01*
X252668593Y-40980087D01*
X252668590Y-40980091D01*
X252580989Y-41111194D01*
X252580982Y-41111207D01*
X252520644Y-41256878D01*
X252520641Y-41256890D01*
X252489880Y-41411533D01*
X252489880Y-41569226D01*
X252520641Y-41723869D01*
X252520644Y-41723881D01*
X252580982Y-41869552D01*
X252580989Y-41869565D01*
X252668590Y-42000668D01*
X252668593Y-42000672D01*
X252780087Y-42112166D01*
X252780095Y-42112172D01*
X252820163Y-42138945D01*
X252864969Y-42192557D01*
X252873676Y-42261882D01*
X252843522Y-42324909D01*
X252807568Y-42352532D01*
X252654594Y-42430476D01*
X252563741Y-42496485D01*
X252495354Y-42546172D01*
X252495352Y-42546174D01*
X252495351Y-42546174D01*
X252356174Y-42685351D01*
X252356174Y-42685352D01*
X252356172Y-42685354D01*
X252306485Y-42753741D01*
X252240476Y-42844594D01*
X252150485Y-43021213D01*
X252102511Y-43072009D01*
X252034690Y-43088804D01*
X251968555Y-43066267D01*
X251929515Y-43021213D01*
X251902397Y-42967992D01*
X251839524Y-42844595D01*
X251723828Y-42685354D01*
X251584646Y-42546172D01*
X251425405Y-42430476D01*
X251420184Y-42427816D01*
X251250029Y-42341117D01*
X251062826Y-42280290D01*
X250868422Y-42249500D01*
X250868417Y-42249500D01*
X250671583Y-42249500D01*
X250671578Y-42249500D01*
X250477173Y-42280290D01*
X250289970Y-42341117D01*
X250114594Y-42430476D01*
X250023741Y-42496485D01*
X249955354Y-42546172D01*
X249955352Y-42546174D01*
X249955351Y-42546174D01*
X249816174Y-42685351D01*
X249816174Y-42685352D01*
X249816172Y-42685354D01*
X249766485Y-42753741D01*
X249700476Y-42844594D01*
X249610485Y-43021213D01*
X249562511Y-43072009D01*
X249494690Y-43088804D01*
X249428555Y-43066267D01*
X249389515Y-43021213D01*
X249362397Y-42967992D01*
X249299524Y-42844595D01*
X249183828Y-42685354D01*
X249044646Y-42546172D01*
X248885405Y-42430476D01*
X248880184Y-42427816D01*
X248710029Y-42341117D01*
X248522826Y-42280290D01*
X248328422Y-42249500D01*
X248328417Y-42249500D01*
X248131583Y-42249500D01*
X248131578Y-42249500D01*
X247937173Y-42280290D01*
X247749970Y-42341117D01*
X247574594Y-42430476D01*
X247483741Y-42496485D01*
X247415354Y-42546172D01*
X247415352Y-42546174D01*
X247415351Y-42546174D01*
X247276174Y-42685351D01*
X247276174Y-42685352D01*
X247276172Y-42685354D01*
X247226485Y-42753741D01*
X247160476Y-42844594D01*
X247070485Y-43021213D01*
X247022511Y-43072009D01*
X246954690Y-43088804D01*
X246888555Y-43066267D01*
X246849515Y-43021213D01*
X246822397Y-42967992D01*
X246759524Y-42844595D01*
X246643828Y-42685354D01*
X246504646Y-42546172D01*
X246345405Y-42430476D01*
X246340184Y-42427816D01*
X246170029Y-42341117D01*
X245982826Y-42280290D01*
X245788422Y-42249500D01*
X245788417Y-42249500D01*
X245591583Y-42249500D01*
X245591578Y-42249500D01*
X245397173Y-42280290D01*
X245209970Y-42341117D01*
X245034594Y-42430476D01*
X244943741Y-42496485D01*
X244875354Y-42546172D01*
X244875352Y-42546174D01*
X244875351Y-42546174D01*
X244736173Y-42685352D01*
X244624817Y-42838620D01*
X244569486Y-42881285D01*
X244499873Y-42887264D01*
X244438078Y-42854658D01*
X244403721Y-42793819D01*
X244400499Y-42765734D01*
X244400499Y-42702129D01*
X244400498Y-42702123D01*
X244400497Y-42702116D01*
X244394091Y-42642517D01*
X244378153Y-42599786D01*
X244343797Y-42507671D01*
X244343793Y-42507664D01*
X244257547Y-42392455D01*
X244257544Y-42392452D01*
X244142335Y-42306206D01*
X244142328Y-42306202D01*
X244007482Y-42255908D01*
X244007483Y-42255908D01*
X243947883Y-42249501D01*
X243947881Y-42249500D01*
X243947873Y-42249500D01*
X243947864Y-42249500D01*
X242352129Y-42249500D01*
X242352123Y-42249501D01*
X242292516Y-42255908D01*
X242157671Y-42306202D01*
X242157664Y-42306206D01*
X242042455Y-42392452D01*
X242042452Y-42392455D01*
X241956206Y-42507664D01*
X241956202Y-42507671D01*
X241905908Y-42642517D01*
X241901303Y-42685354D01*
X241899501Y-42702123D01*
X241899500Y-42702135D01*
X241899500Y-44068060D01*
X241879815Y-44135099D01*
X241827011Y-44180854D01*
X241757853Y-44190798D01*
X241694297Y-44161773D01*
X241687819Y-44155741D01*
X241310292Y-43778213D01*
X241310288Y-43778210D01*
X241179185Y-43690609D01*
X241179172Y-43690602D01*
X241033501Y-43630264D01*
X241033489Y-43630261D01*
X240878845Y-43599500D01*
X240878842Y-43599500D01*
X240721158Y-43599500D01*
X240721155Y-43599500D01*
X240566510Y-43630261D01*
X240566498Y-43630264D01*
X240420827Y-43690602D01*
X240420814Y-43690609D01*
X240289711Y-43778210D01*
X240289707Y-43778213D01*
X240178213Y-43889707D01*
X240178210Y-43889711D01*
X240090609Y-44020814D01*
X240090602Y-44020827D01*
X240030264Y-44166498D01*
X240030261Y-44166510D01*
X239999500Y-44321153D01*
X239999500Y-44478846D01*
X240030261Y-44633489D01*
X240030264Y-44633501D01*
X240090602Y-44779172D01*
X240090609Y-44779185D01*
X240178210Y-44910288D01*
X240178213Y-44910292D01*
X240698046Y-45430124D01*
X240767923Y-45500001D01*
X240783961Y-45516039D01*
X240890318Y-45622396D01*
X241125510Y-45809955D01*
X241380223Y-45970002D01*
X241651255Y-46100524D01*
X241864500Y-46175141D01*
X241935183Y-46199875D01*
X241935195Y-46199879D01*
X242228475Y-46266818D01*
X242527400Y-46300499D01*
X242527401Y-46300500D01*
X242527405Y-46300500D01*
X264988972Y-46300500D01*
X265433706Y-46268692D01*
X265875039Y-46205237D01*
X265875040Y-46205236D01*
X265875045Y-46205236D01*
X266310712Y-46110463D01*
X266310715Y-46110462D01*
X266310720Y-46110461D01*
X266738529Y-45984844D01*
X267156287Y-45829028D01*
X267200215Y-45808966D01*
X267561854Y-45643813D01*
X267561858Y-45643810D01*
X267561866Y-45643807D01*
X267953197Y-45430124D01*
X268328287Y-45189068D01*
X268685225Y-44921868D01*
X269022192Y-44629885D01*
X269179831Y-44472246D01*
X269198249Y-44453828D01*
X270552234Y-43099841D01*
X270613555Y-43066358D01*
X270659311Y-43065051D01*
X270693713Y-43070500D01*
X270693714Y-43070500D01*
X270906286Y-43070500D01*
X270906287Y-43070500D01*
X271116243Y-43037246D01*
X271318412Y-42971557D01*
X271507816Y-42875051D01*
X271557959Y-42838620D01*
X271679786Y-42750109D01*
X271679788Y-42750106D01*
X271679792Y-42750104D01*
X271830104Y-42599792D01*
X271830106Y-42599788D01*
X271830109Y-42599786D01*
X271955048Y-42427820D01*
X271955047Y-42427820D01*
X271955051Y-42427816D01*
X272051557Y-42238412D01*
X272117246Y-42036243D01*
X272150500Y-41826287D01*
X272150500Y-41613713D01*
X272117246Y-41403757D01*
X272051557Y-41201588D01*
X271955051Y-41012184D01*
X271955049Y-41012181D01*
X271955048Y-41012179D01*
X271830109Y-40840213D01*
X271679786Y-40689890D01*
X271507817Y-40564949D01*
X271498504Y-40560204D01*
X271447707Y-40512230D01*
X271430912Y-40444409D01*
X271453449Y-40378274D01*
X271498507Y-40339232D01*
X271507555Y-40334622D01*
X271561716Y-40295270D01*
X271561717Y-40295270D01*
X270929408Y-39662962D01*
X270992993Y-39645925D01*
X271107007Y-39580099D01*
X271200099Y-39487007D01*
X271265925Y-39372993D01*
X271282962Y-39309408D01*
X271915270Y-39941717D01*
X271915270Y-39941716D01*
X271954622Y-39887554D01*
X272051095Y-39698217D01*
X272116757Y-39496130D01*
X272116757Y-39496127D01*
X272150000Y-39286246D01*
X272150000Y-39073753D01*
X272116757Y-38863872D01*
X272116757Y-38863869D01*
X272051095Y-38661782D01*
X271954624Y-38472449D01*
X271915270Y-38418282D01*
X271915269Y-38418282D01*
X271282962Y-39050590D01*
X271265925Y-38987007D01*
X271200099Y-38872993D01*
X271107007Y-38779901D01*
X270992993Y-38714075D01*
X270929408Y-38697037D01*
X271561716Y-38064728D01*
X271507547Y-38025373D01*
X271507547Y-38025372D01*
X271498500Y-38020763D01*
X271447706Y-37972788D01*
X271430912Y-37904966D01*
X271453451Y-37838832D01*
X271498508Y-37799793D01*
X271507816Y-37795051D01*
X271621155Y-37712706D01*
X271679786Y-37670109D01*
X271679788Y-37670106D01*
X271679792Y-37670104D01*
X271830104Y-37519792D01*
X271830106Y-37519788D01*
X271830109Y-37519786D01*
X271955048Y-37347820D01*
X271955047Y-37347820D01*
X271955051Y-37347816D01*
X272051557Y-37158412D01*
X272117246Y-36956243D01*
X272150500Y-36746287D01*
X272150500Y-36533713D01*
X272117246Y-36323757D01*
X272051557Y-36121588D01*
X271955051Y-35932184D01*
X271955049Y-35932181D01*
X271955048Y-35932179D01*
X271830109Y-35760213D01*
X271679786Y-35609890D01*
X271507820Y-35484951D01*
X271507115Y-35484591D01*
X271499054Y-35480485D01*
X271448259Y-35432512D01*
X271431463Y-35364692D01*
X271453999Y-35298556D01*
X271499054Y-35259515D01*
X271507816Y-35255051D01*
X271535230Y-35235134D01*
X271679786Y-35130109D01*
X271679788Y-35130106D01*
X271679792Y-35130104D01*
X271830104Y-34979792D01*
X271830106Y-34979788D01*
X271830109Y-34979786D01*
X271955048Y-34807820D01*
X271955047Y-34807820D01*
X271955051Y-34807816D01*
X272051557Y-34618412D01*
X272117246Y-34416243D01*
X272150500Y-34206287D01*
X272150500Y-33993713D01*
X272117246Y-33783757D01*
X272051557Y-33581588D01*
X271955051Y-33392184D01*
X271955049Y-33392181D01*
X271955048Y-33392179D01*
X271830109Y-33220213D01*
X271679786Y-33069890D01*
X271507820Y-32944951D01*
X271507115Y-32944591D01*
X271499054Y-32940485D01*
X271448259Y-32892512D01*
X271431463Y-32824692D01*
X271453999Y-32758556D01*
X271499054Y-32719515D01*
X271507816Y-32715051D01*
X271529789Y-32699086D01*
X271679786Y-32590109D01*
X271679788Y-32590106D01*
X271679792Y-32590104D01*
X271830104Y-32439792D01*
X271830106Y-32439788D01*
X271830109Y-32439786D01*
X271955048Y-32267820D01*
X271955047Y-32267820D01*
X271955051Y-32267816D01*
X272051557Y-32078412D01*
X272117246Y-31876243D01*
X272150500Y-31666287D01*
X272150500Y-31453713D01*
X272117246Y-31243757D01*
X272051557Y-31041588D01*
X271955051Y-30852184D01*
X271955049Y-30852181D01*
X271955048Y-30852179D01*
X271830109Y-30680213D01*
X271716569Y-30566673D01*
X271683084Y-30505350D01*
X271688068Y-30435658D01*
X271729940Y-30379725D01*
X271760915Y-30362810D01*
X271892331Y-30313796D01*
X272007546Y-30227546D01*
X272093796Y-30112331D01*
X272144091Y-29977483D01*
X272150500Y-29917873D01*
X272150499Y-28122128D01*
X272144091Y-28062517D01*
X272112882Y-27978842D01*
X272093797Y-27927671D01*
X272093793Y-27927664D01*
X272007547Y-27812455D01*
X272007544Y-27812452D01*
X271892335Y-27726206D01*
X271892328Y-27726202D01*
X271757482Y-27675908D01*
X271757483Y-27675908D01*
X271697883Y-27669501D01*
X271697881Y-27669500D01*
X271697873Y-27669500D01*
X271697865Y-27669500D01*
X271660718Y-27669500D01*
X271593679Y-27649815D01*
X271556597Y-27612841D01*
X271538398Y-27584703D01*
X271502780Y-27529631D01*
X271495660Y-27520818D01*
X271327845Y-27313089D01*
X271327845Y-27313088D01*
X271303639Y-27288843D01*
X271299076Y-27284273D01*
X271298849Y-27283933D01*
X271229503Y-27214586D01*
X271205541Y-27190602D01*
X271160341Y-27145359D01*
X271159602Y-27144685D01*
X271108651Y-27093734D01*
X271055208Y-27040291D01*
X270783640Y-26768720D01*
X270783639Y-26768719D01*
X270780528Y-26765608D01*
X270780513Y-26765594D01*
X270701551Y-26686632D01*
X270701549Y-26686629D01*
X270432973Y-26418052D01*
X270407461Y-26392540D01*
X270256353Y-26241433D01*
X270084726Y-26094849D01*
X269931365Y-25963865D01*
X269931351Y-25963855D01*
X269585589Y-25712645D01*
X269585578Y-25712637D01*
X269221191Y-25489340D01*
X269221185Y-25489337D01*
X269221181Y-25489335D01*
X269221173Y-25489330D01*
X268840360Y-25295296D01*
X268840346Y-25295290D01*
X268445492Y-25131735D01*
X268039031Y-24999669D01*
X268039024Y-24999667D01*
X268039020Y-24999666D01*
X267623432Y-24899892D01*
X267201298Y-24833033D01*
X266775224Y-24799500D01*
X266775219Y-24799500D01*
X266660063Y-24799500D01*
X243306924Y-24799500D01*
X243214214Y-24799500D01*
X243021463Y-24799500D01*
X243021458Y-24799500D01*
X242637426Y-24833098D01*
X242637422Y-24833098D01*
X242257793Y-24900037D01*
X242257776Y-24900041D01*
X241885428Y-24999810D01*
X241704292Y-25065739D01*
X241523166Y-25131664D01*
X241523162Y-25131665D01*
X241523156Y-25131668D01*
X241523148Y-25131671D01*
X241173792Y-25294579D01*
X241173776Y-25294587D01*
X240839937Y-25487329D01*
X240839922Y-25487338D01*
X240524138Y-25708453D01*
X240228831Y-25956247D01*
X240158098Y-26026980D01*
X240158097Y-26026982D01*
X240158096Y-26026983D01*
X240095008Y-26090071D01*
X240089954Y-26094849D01*
X239895904Y-26268263D01*
X239885032Y-26276933D01*
X239675637Y-26425506D01*
X239663863Y-26432904D01*
X239439150Y-26557099D01*
X239426621Y-26563132D01*
X239189420Y-26661383D01*
X239176296Y-26665976D01*
X238929577Y-26737055D01*
X238916020Y-26740149D01*
X238662902Y-26783156D01*
X238649084Y-26784713D01*
X238389257Y-26799305D01*
X238382304Y-26799500D01*
X231332763Y-26799500D01*
X230946819Y-26829875D01*
X230946800Y-26829877D01*
X230564429Y-26890439D01*
X230564426Y-26890439D01*
X230564424Y-26890440D01*
X230473733Y-26912213D01*
X230187979Y-26980816D01*
X230187973Y-26980817D01*
X230187968Y-26980819D01*
X230187956Y-26980823D01*
X229819769Y-27100453D01*
X229462084Y-27248611D01*
X229117120Y-27424379D01*
X229117109Y-27424385D01*
X228787034Y-27626656D01*
X228787023Y-27626664D01*
X228473819Y-27854219D01*
X228473805Y-27854229D01*
X228179418Y-28105661D01*
X228105152Y-28179926D01*
X228105150Y-28179928D01*
X227221899Y-29063181D01*
X227194971Y-29077884D01*
X227169153Y-29094477D01*
X227162952Y-29095368D01*
X227160576Y-29096666D01*
X227134218Y-29099500D01*
X227050003Y-29099500D01*
X226919248Y-29099499D01*
X226919247Y-29099499D01*
X226919244Y-29099499D01*
X226919242Y-29099499D01*
X226659387Y-29128777D01*
X226659386Y-29128777D01*
X226404425Y-29186969D01*
X226404413Y-29186973D01*
X226157584Y-29273343D01*
X226157576Y-29273346D01*
X225921979Y-29386803D01*
X225700546Y-29525939D01*
X225496078Y-29688997D01*
X225455865Y-29729209D01*
X225455863Y-29729213D01*
X225284580Y-29900499D01*
X225241798Y-29943281D01*
X225221446Y-29968802D01*
X225164257Y-30008942D01*
X225094446Y-30011791D01*
X225034176Y-29976444D01*
X225002584Y-29914125D01*
X225000500Y-29891488D01*
X225000500Y-19817068D01*
X225999500Y-19817068D01*
X225999500Y-20097931D01*
X226030942Y-20376994D01*
X226030945Y-20377012D01*
X226093439Y-20650817D01*
X226093443Y-20650829D01*
X226186200Y-20915911D01*
X226308053Y-21168942D01*
X226308055Y-21168945D01*
X226457477Y-21406748D01*
X226632584Y-21626325D01*
X226831175Y-21824916D01*
X227050752Y-22000023D01*
X227288555Y-22149445D01*
X227541592Y-22271301D01*
X227740680Y-22340965D01*
X227806670Y-22364056D01*
X227806682Y-22364060D01*
X228080491Y-22426555D01*
X228080497Y-22426555D01*
X228080505Y-22426557D01*
X228266547Y-22447518D01*
X228359569Y-22457999D01*
X228359572Y-22458000D01*
X228359575Y-22458000D01*
X228640428Y-22458000D01*
X228640429Y-22457999D01*
X228783055Y-22441929D01*
X228919494Y-22426557D01*
X228919499Y-22426556D01*
X228919509Y-22426555D01*
X229193318Y-22364060D01*
X229458408Y-22271301D01*
X229711445Y-22149445D01*
X229949248Y-22000023D01*
X230168825Y-21824916D01*
X230367416Y-21626325D01*
X230542523Y-21406748D01*
X230691945Y-21168945D01*
X230813801Y-20915908D01*
X230906560Y-20650818D01*
X230969055Y-20377009D01*
X231000500Y-20097925D01*
X231000500Y-19817075D01*
X231000499Y-19817068D01*
X267999500Y-19817068D01*
X267999500Y-20097931D01*
X268030942Y-20376994D01*
X268030945Y-20377012D01*
X268093439Y-20650817D01*
X268093443Y-20650829D01*
X268186200Y-20915911D01*
X268308053Y-21168942D01*
X268308055Y-21168945D01*
X268457477Y-21406748D01*
X268632584Y-21626325D01*
X268831175Y-21824916D01*
X269050752Y-22000023D01*
X269288555Y-22149445D01*
X269541592Y-22271301D01*
X269740680Y-22340965D01*
X269806670Y-22364056D01*
X269806682Y-22364060D01*
X270080491Y-22426555D01*
X270080497Y-22426555D01*
X270080505Y-22426557D01*
X270266547Y-22447518D01*
X270359569Y-22457999D01*
X270359572Y-22458000D01*
X270359575Y-22458000D01*
X270640428Y-22458000D01*
X270640429Y-22457999D01*
X270783055Y-22441929D01*
X270919494Y-22426557D01*
X270919499Y-22426556D01*
X270919509Y-22426555D01*
X271193318Y-22364060D01*
X271458408Y-22271301D01*
X271711445Y-22149445D01*
X271949248Y-22000023D01*
X272168825Y-21824916D01*
X272367416Y-21626325D01*
X272542523Y-21406748D01*
X272691945Y-21168945D01*
X272813801Y-20915908D01*
X272906560Y-20650818D01*
X272969055Y-20377009D01*
X273000500Y-20097925D01*
X273000500Y-19817075D01*
X272969055Y-19537991D01*
X272906560Y-19264182D01*
X272813801Y-18999092D01*
X272691945Y-18746055D01*
X272542523Y-18508252D01*
X272367416Y-18288675D01*
X272168825Y-18090084D01*
X271949248Y-17914977D01*
X271711445Y-17765555D01*
X271711442Y-17765553D01*
X271458411Y-17643700D01*
X271193329Y-17550943D01*
X271193317Y-17550939D01*
X270919512Y-17488445D01*
X270919494Y-17488442D01*
X270640431Y-17457000D01*
X270640425Y-17457000D01*
X270359575Y-17457000D01*
X270359568Y-17457000D01*
X270080505Y-17488442D01*
X270080487Y-17488445D01*
X269806682Y-17550939D01*
X269806670Y-17550943D01*
X269541588Y-17643700D01*
X269288557Y-17765553D01*
X269050753Y-17914976D01*
X268831175Y-18090083D01*
X268632583Y-18288675D01*
X268457476Y-18508253D01*
X268308053Y-18746057D01*
X268186200Y-18999088D01*
X268093443Y-19264170D01*
X268093439Y-19264182D01*
X268030945Y-19537987D01*
X268030942Y-19538005D01*
X267999500Y-19817068D01*
X231000499Y-19817068D01*
X230969055Y-19537991D01*
X230906560Y-19264182D01*
X230813801Y-18999092D01*
X230691945Y-18746055D01*
X230542523Y-18508252D01*
X230367416Y-18288675D01*
X230168825Y-18090084D01*
X229949248Y-17914977D01*
X229711445Y-17765555D01*
X229711442Y-17765553D01*
X229458411Y-17643700D01*
X229193329Y-17550943D01*
X229193317Y-17550939D01*
X228919512Y-17488445D01*
X228919494Y-17488442D01*
X228640431Y-17457000D01*
X228640425Y-17457000D01*
X228359575Y-17457000D01*
X228359568Y-17457000D01*
X228080505Y-17488442D01*
X228080487Y-17488445D01*
X227806682Y-17550939D01*
X227806670Y-17550943D01*
X227541588Y-17643700D01*
X227288557Y-17765553D01*
X227050753Y-17914976D01*
X226831175Y-18090083D01*
X226632583Y-18288675D01*
X226457476Y-18508253D01*
X226308053Y-18746057D01*
X226186200Y-18999088D01*
X226093443Y-19264170D01*
X226093439Y-19264182D01*
X226030945Y-19537987D01*
X226030942Y-19538005D01*
X225999500Y-19817068D01*
X225000500Y-19817068D01*
X225000500Y-18961250D01*
X225000726Y-18953763D01*
X225018271Y-18663705D01*
X225020076Y-18648840D01*
X225034132Y-18572143D01*
X225071780Y-18366698D01*
X225075364Y-18352164D01*
X225095148Y-18288675D01*
X225160699Y-18078312D01*
X225165997Y-18064342D01*
X225283727Y-17802758D01*
X225290680Y-17789512D01*
X225434899Y-17550943D01*
X225439075Y-17544034D01*
X225447567Y-17531730D01*
X225624481Y-17305917D01*
X225634396Y-17294726D01*
X225837226Y-17091896D01*
X225848417Y-17081981D01*
X226074230Y-16905067D01*
X226086534Y-16896575D01*
X226332012Y-16748180D01*
X226345258Y-16741227D01*
X226606842Y-16623497D01*
X226620812Y-16618199D01*
X226894668Y-16532862D01*
X226909198Y-16529280D01*
X227191344Y-16477575D01*
X227206201Y-16475771D01*
X227496264Y-16458226D01*
X227503751Y-16458000D01*
X227565892Y-16458000D01*
X271434108Y-16458000D01*
X271496249Y-16458000D01*
X271503736Y-16458226D01*
G37*
%TD.AperFunction*%
%TA.AperFunction,Conductor*%
G36*
X266564556Y-26800649D02*
G01*
X266892424Y-26816755D01*
X266904528Y-26817947D01*
X267226223Y-26865666D01*
X267238137Y-26868036D01*
X267553615Y-26947059D01*
X267565252Y-26950590D01*
X267649748Y-26980823D01*
X267871446Y-27060148D01*
X267882667Y-27064795D01*
X268176684Y-27203854D01*
X268187392Y-27209578D01*
X268466330Y-27376768D01*
X268476445Y-27383526D01*
X268673445Y-27529631D01*
X268737658Y-27577254D01*
X268747060Y-27584970D01*
X268962209Y-27779970D01*
X268990297Y-27805428D01*
X268994703Y-27809624D01*
X269031662Y-27846582D01*
X269031663Y-27846584D01*
X269031664Y-27846584D01*
X269352115Y-28167037D01*
X269352126Y-28167047D01*
X269413181Y-28228102D01*
X269446666Y-28289425D01*
X269449500Y-28315783D01*
X269449500Y-29917870D01*
X269449501Y-29917876D01*
X269455908Y-29977483D01*
X269506202Y-30112328D01*
X269506206Y-30112335D01*
X269592452Y-30227544D01*
X269592455Y-30227547D01*
X269707664Y-30313793D01*
X269707671Y-30313797D01*
X269839082Y-30362810D01*
X269895016Y-30404681D01*
X269919433Y-30470145D01*
X269904582Y-30538418D01*
X269883431Y-30566673D01*
X269769889Y-30680215D01*
X269644951Y-30852179D01*
X269548444Y-31041585D01*
X269548443Y-31041587D01*
X269548443Y-31041588D01*
X269526370Y-31109522D01*
X269482753Y-31243760D01*
X269449500Y-31453713D01*
X269449500Y-31666286D01*
X269482753Y-31876239D01*
X269548444Y-32078414D01*
X269644951Y-32267820D01*
X269769890Y-32439786D01*
X269920213Y-32590109D01*
X270092182Y-32715050D01*
X270100946Y-32719516D01*
X270151742Y-32767491D01*
X270168536Y-32835312D01*
X270145998Y-32901447D01*
X270100946Y-32940484D01*
X270092182Y-32944949D01*
X269920213Y-33069890D01*
X269769890Y-33220213D01*
X269644951Y-33392179D01*
X269548444Y-33581585D01*
X269482753Y-33783760D01*
X269449500Y-33993713D01*
X269449500Y-34206287D01*
X269449499Y-34206287D01*
X269454948Y-34240686D01*
X269445993Y-34309979D01*
X269420156Y-34347764D01*
X269236420Y-34531500D01*
X269231366Y-34536279D01*
X269020601Y-34724629D01*
X269009729Y-34733299D01*
X268782044Y-34894850D01*
X268770270Y-34902248D01*
X268525927Y-35037292D01*
X268513399Y-35043325D01*
X268255475Y-35150161D01*
X268242349Y-35154754D01*
X267974082Y-35232040D01*
X267960526Y-35235134D01*
X267685294Y-35281898D01*
X267671476Y-35283455D01*
X267389257Y-35299305D01*
X267382304Y-35299500D01*
X258905155Y-35299500D01*
X258644347Y-35328886D01*
X258644331Y-35328888D01*
X258388446Y-35387292D01*
X258388440Y-35387294D01*
X258140693Y-35473983D01*
X257904216Y-35587865D01*
X257690472Y-35722169D01*
X257623235Y-35741169D01*
X257556400Y-35720801D01*
X257511186Y-35667533D01*
X257500500Y-35617175D01*
X257500500Y-35521155D01*
X257500499Y-35521153D01*
X257469739Y-35366511D01*
X257469738Y-35366508D01*
X257469737Y-35366503D01*
X257459937Y-35342844D01*
X257450500Y-35295396D01*
X257450500Y-32170815D01*
X257450649Y-32164731D01*
X257467137Y-31829096D01*
X257468330Y-31816985D01*
X257508824Y-31544003D01*
X257517189Y-31487604D01*
X257519563Y-31475673D01*
X257551183Y-31349438D01*
X257600473Y-31152660D01*
X257603999Y-31141034D01*
X257716189Y-30827483D01*
X257720831Y-30816276D01*
X257863217Y-30515228D01*
X257868941Y-30504519D01*
X258040139Y-30218894D01*
X258046882Y-30208801D01*
X258245264Y-29941314D01*
X258252967Y-29931929D01*
X258478650Y-29682926D01*
X258482808Y-29678558D01*
X259515297Y-28646069D01*
X259555524Y-28619191D01*
X259579179Y-28609394D01*
X259710289Y-28521789D01*
X259821789Y-28410289D01*
X259909394Y-28279179D01*
X259969737Y-28133497D01*
X260000500Y-27978842D01*
X260000500Y-27821158D01*
X260000500Y-27821155D01*
X260000499Y-27821153D01*
X259996154Y-27799308D01*
X259969737Y-27666503D01*
X259932769Y-27577254D01*
X259909397Y-27520827D01*
X259909390Y-27520814D01*
X259821789Y-27389711D01*
X259821786Y-27389707D01*
X259710292Y-27278213D01*
X259710288Y-27278210D01*
X259579185Y-27190609D01*
X259579172Y-27190602D01*
X259433501Y-27130264D01*
X259433489Y-27130261D01*
X259278845Y-27099500D01*
X259278842Y-27099500D01*
X259121158Y-27099500D01*
X259121155Y-27099500D01*
X258966510Y-27130261D01*
X258966498Y-27130264D01*
X258820827Y-27190602D01*
X258820814Y-27190609D01*
X258689711Y-27278210D01*
X258689707Y-27278213D01*
X258578213Y-27389707D01*
X258578207Y-27389715D01*
X258490607Y-27520818D01*
X258490606Y-27520819D01*
X258480805Y-27544480D01*
X258453927Y-27584703D01*
X257368276Y-28670355D01*
X257368258Y-28670373D01*
X257367048Y-28671584D01*
X257367045Y-28671587D01*
X257279898Y-28758735D01*
X257235482Y-28810738D01*
X257233313Y-28813032D01*
X257205731Y-28829103D01*
X257179013Y-28846544D01*
X257175758Y-28846567D01*
X257172944Y-28848207D01*
X257141055Y-28846814D01*
X257109145Y-28847042D01*
X257106392Y-28845300D01*
X257103141Y-28845159D01*
X257077082Y-28826758D01*
X257050099Y-28809688D01*
X257048724Y-28806734D01*
X257046066Y-28804857D01*
X257034090Y-28775284D01*
X257020622Y-28746341D01*
X257020917Y-28742755D01*
X257019840Y-28740096D01*
X257022139Y-28727907D01*
X257025299Y-28689502D01*
X257069709Y-28552826D01*
X257083091Y-28468335D01*
X257100500Y-28358422D01*
X257100500Y-28161577D01*
X257069709Y-27967173D01*
X257022264Y-27821155D01*
X257008884Y-27779975D01*
X257008882Y-27779972D01*
X257008882Y-27779970D01*
X256955860Y-27675909D01*
X256919524Y-27604595D01*
X256803828Y-27445354D01*
X256664646Y-27306172D01*
X256505405Y-27190476D01*
X256330029Y-27101117D01*
X256149413Y-27042431D01*
X256091738Y-27002993D01*
X256064540Y-26938634D01*
X256076455Y-26869788D01*
X256123699Y-26818312D01*
X256187732Y-26800500D01*
X266468813Y-26800500D01*
X266558472Y-26800500D01*
X266564556Y-26800649D01*
G37*
%TD.AperFunction*%
%TD*%
M02*
