%TF.GenerationSoftware,KiCad,Pcbnew,10.0.3*%
%TF.CreationDate,2026-06-15T19:35:29+03:00*%
%TF.ProjectId,KYX-5361AG_7-SEG-LED_v3,4b59582d-3533-4363-9141-475f372d5345,rev?*%
%TF.SameCoordinates,Original*%
%TF.FileFunction,Paste,Bot*%
%TF.FilePolarity,Positive*%
%FSLAX46Y46*%
G04 Gerber Fmt 4.6, Leading zero omitted, Abs format (unit mm)*
G04 Created by KiCad (PCBNEW 10.0.3) date 2026-06-15 19:35:29*
%MOMM*%
%LPD*%
G01*
G04 APERTURE LIST*
G04 Aperture macros list*
%AMRoundRect*
0 Rectangle with rounded corners*
0 $1 Rounding radius*
0 $2 $3 $4 $5 $6 $7 $8 $9 X,Y pos of 4 corners*
0 Add a 4 corners polygon primitive as box body*
4,1,4,$2,$3,$4,$5,$6,$7,$8,$9,$2,$3,0*
0 Add four circle primitives for the rounded corners*
1,1,$1+$1,$2,$3*
1,1,$1+$1,$4,$5*
1,1,$1+$1,$6,$7*
1,1,$1+$1,$8,$9*
0 Add four rect primitives between the rounded corners*
20,1,$1+$1,$2,$3,$4,$5,0*
20,1,$1+$1,$4,$5,$6,$7,0*
20,1,$1+$1,$6,$7,$8,$9,0*
20,1,$1+$1,$8,$9,$2,$3,0*%
G04 Aperture macros list end*
%ADD10RoundRect,0.250000X-0.350000X-0.450000X0.350000X-0.450000X0.350000X0.450000X-0.350000X0.450000X0*%
%ADD11RoundRect,0.250000X0.350000X0.450000X-0.350000X0.450000X-0.350000X-0.450000X0.350000X-0.450000X0*%
%ADD12RoundRect,0.150000X0.150000X-0.825000X0.150000X0.825000X-0.150000X0.825000X-0.150000X-0.825000X0*%
%ADD13RoundRect,0.150000X0.150000X-0.587500X0.150000X0.587500X-0.150000X0.587500X-0.150000X-0.587500X0*%
%ADD14RoundRect,0.150000X-0.150000X0.587500X-0.150000X-0.587500X0.150000X-0.587500X0.150000X0.587500X0*%
%ADD15RoundRect,0.150000X-0.825000X-0.150000X0.825000X-0.150000X0.825000X0.150000X-0.825000X0.150000X0*%
%ADD16RoundRect,0.150000X0.825000X0.150000X-0.825000X0.150000X-0.825000X-0.150000X0.825000X-0.150000X0*%
G04 APERTURE END LIST*
D10*
%TO.C,R8*%
X139800000Y-97200000D03*
X141800000Y-97200000D03*
%TD*%
D11*
%TO.C,R40*%
X169875000Y-114260000D03*
X167875000Y-114260000D03*
%TD*%
D12*
%TO.C,U5*%
X203070000Y-92230000D03*
X201800000Y-92230000D03*
X200530000Y-92230000D03*
X199260000Y-92230000D03*
X197990000Y-92230000D03*
X196720000Y-92230000D03*
X195450000Y-92230000D03*
X194180000Y-92230000D03*
X194180000Y-87280000D03*
X195450000Y-87280000D03*
X196720000Y-87280000D03*
X197990000Y-87280000D03*
X199260000Y-87280000D03*
X200530000Y-87280000D03*
X201800000Y-87280000D03*
X203070000Y-87280000D03*
%TD*%
D11*
%TO.C,R41*%
X169875000Y-116270000D03*
X167875000Y-116270000D03*
%TD*%
%TO.C,R35*%
X117075000Y-113810000D03*
X115075000Y-113810000D03*
%TD*%
D10*
%TO.C,R4*%
X139800000Y-95200000D03*
X141800000Y-95200000D03*
%TD*%
D11*
%TO.C,R19*%
X169600000Y-99600000D03*
X167600000Y-99600000D03*
%TD*%
D13*
%TO.C,Q10*%
X121615000Y-110517500D03*
X119715000Y-110517500D03*
X120665000Y-108642500D03*
%TD*%
D10*
%TO.C,R24*%
X192025000Y-101700000D03*
X194025000Y-101700000D03*
%TD*%
%TO.C,R1*%
X139800000Y-91100000D03*
X141800000Y-91100000D03*
%TD*%
%TO.C,R2*%
X139800000Y-87100000D03*
X141800000Y-87100000D03*
%TD*%
%TO.C,R7*%
X139800000Y-101200000D03*
X141800000Y-101200000D03*
%TD*%
D11*
%TO.C,R14*%
X169600000Y-88600000D03*
X167600000Y-88600000D03*
%TD*%
D13*
%TO.C,Q7*%
X189587500Y-90937500D03*
X187687500Y-90937500D03*
X188637500Y-89062500D03*
%TD*%
D14*
%TO.C,Q4*%
X135000000Y-96425000D03*
X136900000Y-96425000D03*
X135950000Y-98300000D03*
%TD*%
D10*
%TO.C,R45*%
X189025000Y-115410000D03*
X191025000Y-115410000D03*
%TD*%
D11*
%TO.C,R39*%
X169875000Y-112250000D03*
X167875000Y-112250000D03*
%TD*%
%TO.C,R11*%
X118800000Y-95200000D03*
X116800000Y-95200000D03*
%TD*%
D10*
%TO.C,R32*%
X139625000Y-117961667D03*
X141625000Y-117961667D03*
%TD*%
D11*
%TO.C,R18*%
X169600000Y-97400000D03*
X167600000Y-97400000D03*
%TD*%
D10*
%TO.C,R46*%
X195625000Y-109320000D03*
X197625000Y-109320000D03*
%TD*%
%TO.C,R25*%
X139625000Y-111688333D03*
X141625000Y-111688333D03*
%TD*%
%TO.C,R30*%
X139625000Y-109656667D03*
X141625000Y-109656667D03*
%TD*%
D11*
%TO.C,R20*%
X169600000Y-101800000D03*
X167600000Y-101800000D03*
%TD*%
D10*
%TO.C,R3*%
X139800000Y-99200000D03*
X141800000Y-99200000D03*
%TD*%
D11*
%TO.C,R12*%
X118800000Y-97300000D03*
X116800000Y-97300000D03*
%TD*%
D15*
%TO.C,U6*%
X196650000Y-121580000D03*
X196650000Y-120310000D03*
X196650000Y-119040000D03*
X196650000Y-117770000D03*
X196650000Y-116500000D03*
X196650000Y-115230000D03*
X196650000Y-113960000D03*
X196650000Y-112690000D03*
X201600000Y-112690000D03*
X201600000Y-113960000D03*
X201600000Y-115230000D03*
X201600000Y-116500000D03*
X201600000Y-117770000D03*
X201600000Y-119040000D03*
X201600000Y-120310000D03*
X201600000Y-121580000D03*
%TD*%
D13*
%TO.C,Q9*%
X126215000Y-110367500D03*
X124315000Y-110367500D03*
X125265000Y-108492500D03*
%TD*%
D10*
%TO.C,R47*%
X195625000Y-105530000D03*
X197625000Y-105530000D03*
%TD*%
D15*
%TO.C,U1*%
X147150000Y-98490000D03*
X147150000Y-97220000D03*
X147150000Y-95950000D03*
X147150000Y-94680000D03*
X147150000Y-93410000D03*
X147150000Y-92140000D03*
X147150000Y-90870000D03*
X147150000Y-89600000D03*
X152100000Y-89600000D03*
X152100000Y-90870000D03*
X152100000Y-92140000D03*
X152100000Y-93410000D03*
X152100000Y-94680000D03*
X152100000Y-95950000D03*
X152100000Y-97220000D03*
X152100000Y-98490000D03*
%TD*%
D13*
%TO.C,Q5*%
X179787500Y-90837500D03*
X177887500Y-90837500D03*
X178837500Y-88962500D03*
%TD*%
D10*
%TO.C,R5*%
X139800000Y-93100000D03*
X141800000Y-93100000D03*
%TD*%
D13*
%TO.C,Q13*%
X186825000Y-113317500D03*
X184925000Y-113317500D03*
X185875000Y-111442500D03*
%TD*%
D11*
%TO.C,R13*%
X169600000Y-86400000D03*
X167600000Y-86400000D03*
%TD*%
D10*
%TO.C,R22*%
X192000000Y-97610000D03*
X194000000Y-97610000D03*
%TD*%
D13*
%TO.C,Q1*%
X126250000Y-90637500D03*
X124350000Y-90637500D03*
X125300000Y-88762500D03*
%TD*%
%TO.C,Q6*%
X184687500Y-90837500D03*
X182787500Y-90837500D03*
X183737500Y-88962500D03*
%TD*%
%TO.C,Q11*%
X116725000Y-110517500D03*
X114825000Y-110517500D03*
X115775000Y-108642500D03*
%TD*%
D10*
%TO.C,R29*%
X139625000Y-113825000D03*
X141625000Y-113825000D03*
%TD*%
D15*
%TO.C,U3*%
X147100000Y-117480000D03*
X147100000Y-116210000D03*
X147100000Y-114940000D03*
X147100000Y-113670000D03*
X147100000Y-112400000D03*
X147100000Y-111130000D03*
X147100000Y-109860000D03*
X147100000Y-108590000D03*
X152050000Y-108590000D03*
X152050000Y-109860000D03*
X152050000Y-111130000D03*
X152050000Y-112400000D03*
X152050000Y-113670000D03*
X152050000Y-114940000D03*
X152050000Y-116210000D03*
X152050000Y-117480000D03*
%TD*%
D13*
%TO.C,Q14*%
X192635000Y-112117500D03*
X190735000Y-112117500D03*
X191685000Y-110242500D03*
%TD*%
D14*
%TO.C,Q16*%
X184835000Y-117242500D03*
X186735000Y-117242500D03*
X185785000Y-119117500D03*
%TD*%
D13*
%TO.C,Q3*%
X135050000Y-91775000D03*
X133150000Y-91775000D03*
X134100000Y-89900000D03*
%TD*%
D10*
%TO.C,R31*%
X146425000Y-121370000D03*
X148425000Y-121370000D03*
%TD*%
%TO.C,R28*%
X139625000Y-115893333D03*
X141625000Y-115893333D03*
%TD*%
D11*
%TO.C,R16*%
X169600000Y-93000000D03*
X167600000Y-93000000D03*
%TD*%
%TO.C,R36*%
X117075000Y-120120000D03*
X115075000Y-120120000D03*
%TD*%
%TO.C,R43*%
X169825000Y-120390000D03*
X167825000Y-120390000D03*
%TD*%
D10*
%TO.C,R6*%
X139800000Y-89100000D03*
X141800000Y-89100000D03*
%TD*%
%TO.C,R26*%
X139625000Y-107620000D03*
X141625000Y-107620000D03*
%TD*%
D11*
%TO.C,R10*%
X118800000Y-93100000D03*
X116800000Y-93100000D03*
%TD*%
%TO.C,R44*%
X165625000Y-120400000D03*
X163625000Y-120400000D03*
%TD*%
%TO.C,R34*%
X117075000Y-115900000D03*
X115075000Y-115900000D03*
%TD*%
%TO.C,R15*%
X169600000Y-90800000D03*
X167600000Y-90800000D03*
%TD*%
D10*
%TO.C,R27*%
X139625000Y-120030000D03*
X141625000Y-120030000D03*
%TD*%
D11*
%TO.C,R42*%
X169875000Y-118280000D03*
X167875000Y-118280000D03*
%TD*%
D16*
%TO.C,U2*%
X163750000Y-89610000D03*
X163750000Y-90880000D03*
X163750000Y-92150000D03*
X163750000Y-93420000D03*
X163750000Y-94690000D03*
X163750000Y-95960000D03*
X163750000Y-97230000D03*
X163750000Y-98500000D03*
X158800000Y-98500000D03*
X158800000Y-97230000D03*
X158800000Y-95960000D03*
X158800000Y-94690000D03*
X158800000Y-93420000D03*
X158800000Y-92150000D03*
X158800000Y-90880000D03*
X158800000Y-89610000D03*
%TD*%
D10*
%TO.C,R23*%
X192000000Y-95400000D03*
X194000000Y-95400000D03*
%TD*%
D14*
%TO.C,Q8*%
X184787500Y-95562500D03*
X186687500Y-95562500D03*
X185737500Y-97437500D03*
%TD*%
D11*
%TO.C,R17*%
X169600000Y-95200000D03*
X167600000Y-95200000D03*
%TD*%
D14*
%TO.C,Q12*%
X122125000Y-116292500D03*
X124025000Y-116292500D03*
X123075000Y-118167500D03*
%TD*%
D10*
%TO.C,R48*%
X189225000Y-118740000D03*
X191225000Y-118740000D03*
%TD*%
D11*
%TO.C,R9*%
X118800000Y-91000000D03*
X116800000Y-91000000D03*
%TD*%
%TO.C,R38*%
X169875000Y-110240000D03*
X167875000Y-110240000D03*
%TD*%
D13*
%TO.C,Q15*%
X192435000Y-107867500D03*
X190535000Y-107867500D03*
X191485000Y-105992500D03*
%TD*%
D16*
%TO.C,U4*%
X163850000Y-108790000D03*
X163850000Y-110060000D03*
X163850000Y-111330000D03*
X163850000Y-112600000D03*
X163850000Y-113870000D03*
X163850000Y-115140000D03*
X163850000Y-116410000D03*
X163850000Y-117680000D03*
X158900000Y-117680000D03*
X158900000Y-116410000D03*
X158900000Y-115140000D03*
X158900000Y-113870000D03*
X158900000Y-112600000D03*
X158900000Y-111330000D03*
X158900000Y-110060000D03*
X158900000Y-108790000D03*
%TD*%
D11*
%TO.C,R37*%
X169875000Y-108130000D03*
X167875000Y-108130000D03*
%TD*%
D10*
%TO.C,R21*%
X192000000Y-99700000D03*
X194000000Y-99700000D03*
%TD*%
D13*
%TO.C,Q2*%
X131250000Y-90675000D03*
X129350000Y-90675000D03*
X130300000Y-88800000D03*
%TD*%
D11*
%TO.C,R33*%
X117075000Y-117990000D03*
X115075000Y-117990000D03*
%TD*%
M02*
