M48
; DRILL file KiCad 10.0.3 date 2026-06-15T19:35:47
; FORMAT={-:-/ absolute / metric / decimal}
; #@! TF.CreationDate,2026-06-15T19:35:47+03:00
; #@! TF.GenerationSoftware,Kicad,Pcbnew,10.0.3
; #@! TF.FileFunction,Plated,1,4,PTH
FMAT,2
METRIC
; #@! TA.AperFunction,Plated,PTH,ViaDrill
T1C0.300
; #@! TA.AperFunction,Plated,PTH,ComponentDrill
T2C1.000
%
G90
G05
T1
X106.0Y-89.6
X106.2Y-122.1
X112.2Y-100.0
X112.8Y-113.8
X113.0Y-106.5
X113.4Y-120.1
X113.7Y-115.9
X113.9Y-105.5
X114.825Y-112.175
X115.0Y-91.8
X115.4Y-105.4
X115.5Y-97.3
X116.8Y-89.2
X117.1Y-102.6
X118.0Y-99.7
X118.6Y-121.7
X119.715Y-112.085
X122.1Y-119.7
X124.025Y-114.725
X124.315Y-112.085
X124.35Y-93.35
X124.4Y-118.9
X127.1Y-98.4
X127.5Y-92.1
X128.7Y-97.3
X128.7Y-110.2
X129.35Y-93.35
X131.0Y-112.6
X131.9Y-94.4
X133.2Y-93.4
X134.125Y-97.3
X134.9Y-88.3
X136.2Y-91.7
X136.9Y-95.1
X137.0Y-98.8
X138.7Y-105.6
X139.0Y-85.3
X143.1Y-93.1
X143.2Y-95.2
X143.2Y-112.1
X143.25Y-117.95
X143.4Y-99.2
X143.8Y-91.1
X145.1Y-110.6
X145.11Y-108.59
X145.3Y-109.5
X145.4Y-89.6
X145.42Y-94.68
X145.42Y-97.22
X145.45Y-95.95
X145.5Y-117.5
X146.2Y-100.3
X150.0Y-116.2
X150.4Y-97.22
X150.5Y-95.9
X150.52Y-94.68
X150.8Y-92.14
X151.7Y-105.7
X152.8Y-107.4
X153.6Y-109.8
X153.6Y-117.5
X153.9Y-98.49
X153.97Y-90.87
X154.17Y-113.67
X154.6Y-94.6
X154.9Y-96.4
X154.9Y-110.3
X155.0Y-106.0
X155.3Y-112.3
X156.8Y-89.6
X157.0Y-94.6
X157.0Y-112.6
X157.02Y-93.42
X157.11Y-108.79
X157.11Y-116.41
X157.2Y-97.2
X157.2Y-99.7
X157.2Y-111.3
X158.0Y-105.0
X159.2Y-88.3
X160.3Y-105.0
X161.06Y-115.14
X161.15Y-112.75
X161.6Y-91.5
X162.0Y-103.3
X162.18Y-117.68
X162.6Y-107.2
X163.75Y-99.45
X165.5Y-85.3
X166.6Y-121.7
X168.2Y-105.1
X171.2Y-117.3
X171.9Y-87.6
X171.9Y-99.6
X172.0Y-101.8
X172.5Y-96.6
X172.6Y-121.2
X172.9Y-105.1
X173.1Y-114.1
X175.4Y-111.6
X175.4Y-114.5
X176.2Y-90.8
X177.3Y-112.5
X181.2Y-89.4
X181.3Y-111.5
X181.463Y-90.837
X183.1Y-96.2
X183.517Y-113.317
X186.2Y-90.938
X186.735Y-116.0
X187.4Y-109.5
X187.6Y-98.6
X187.7Y-95.0
X189.3Y-100.7
X189.3Y-107.9
X189.4Y-85.2
X189.6Y-121.1
X190.107Y-105.992
X190.5Y-93.7
X190.735Y-113.665
X191.5Y-85.2
X192.4Y-90.2
X192.5Y-116.8
X193.13Y-92.23
X194.2Y-89.7
X194.4Y-113.9
X194.6Y-119.0
X194.7Y-121.0
X195.0Y-112.7
X195.4Y-101.7
X195.45Y-85.8
X195.45Y-93.95
X198.35Y-88.75
X198.5Y-102.6
X198.5Y-118.4
X199.26Y-85.8
X199.3Y-119.6
X200.2Y-115.23
X201.8Y-88.9
X201.9Y-122.8
X202.3Y-99.9
X203.07Y-85.8
X203.18Y-121.58
X203.2Y-113.9
X203.3Y-117.8
X203.5Y-116.5
X205.1Y-92.3
X205.6Y-85.2
X205.8Y-89.7
T2
X107.1Y-98.92
X107.1Y-101.46
X107.1Y-104.0
X107.1Y-106.54
X107.1Y-109.08
X123.99Y-86.517
X123.99Y-101.757
X123.99Y-106.117
X123.99Y-121.357
X126.53Y-86.517
X126.53Y-101.757
X126.53Y-106.117
X126.53Y-121.357
X129.07Y-86.517
X129.07Y-101.757
X129.07Y-106.117
X129.07Y-121.357
X131.61Y-86.517
X131.61Y-101.757
X131.61Y-106.117
X131.61Y-121.357
X134.15Y-86.517
X134.15Y-101.757
X134.15Y-106.117
X134.15Y-121.357
X136.69Y-86.517
X136.69Y-101.757
X136.69Y-106.117
X136.69Y-121.357
X174.89Y-86.517
X174.89Y-101.757
X174.89Y-106.117
X174.89Y-121.357
X177.43Y-86.517
X177.43Y-101.757
X177.43Y-106.117
X177.43Y-121.357
X179.97Y-86.517
X179.97Y-101.757
X179.97Y-106.117
X179.97Y-121.357
X182.51Y-86.517
X182.51Y-101.757
X182.51Y-106.117
X182.51Y-121.357
X185.05Y-86.517
X185.05Y-101.757
X185.05Y-106.117
X185.05Y-121.357
X187.59Y-86.517
X187.59Y-101.757
X187.59Y-106.117
X187.59Y-121.357
X204.5Y-98.86
X204.5Y-101.4
X204.5Y-103.94
X204.5Y-106.48
X204.5Y-109.02
M30
