%TF.GenerationSoftware,KiCad,Pcbnew,10.0.3*%
%TF.CreationDate,2026-06-15T19:35:29+03:00*%
%TF.ProjectId,KYX-5361AG_7-SEG-LED_v3,4b59582d-3533-4363-9141-475f372d5345,rev?*%
%TF.SameCoordinates,Original*%
%TF.FileFunction,Legend,Top*%
%TF.FilePolarity,Positive*%
%FSLAX46Y46*%
G04 Gerber Fmt 4.6, Leading zero omitted, Abs format (unit mm)*
G04 Created by KiCad (PCBNEW 10.0.3) date 2026-06-15 19:35:29*
%MOMM*%
%LPD*%
G01*
G04 APERTURE LIST*
%ADD10C,0.150000*%
%ADD11C,0.120000*%
G04 APERTURE END LIST*
D10*
X106844746Y-122023243D02*
X106844746Y-122499433D01*
X106844746Y-122499433D02*
X105844746Y-122499433D01*
X105844746Y-121785147D02*
X105844746Y-121166100D01*
X105844746Y-121166100D02*
X106225698Y-121499433D01*
X106225698Y-121499433D02*
X106225698Y-121356576D01*
X106225698Y-121356576D02*
X106273317Y-121261338D01*
X106273317Y-121261338D02*
X106320936Y-121213719D01*
X106320936Y-121213719D02*
X106416174Y-121166100D01*
X106416174Y-121166100D02*
X106654269Y-121166100D01*
X106654269Y-121166100D02*
X106749507Y-121213719D01*
X106749507Y-121213719D02*
X106797127Y-121261338D01*
X106797127Y-121261338D02*
X106844746Y-121356576D01*
X106844746Y-121356576D02*
X106844746Y-121642290D01*
X106844746Y-121642290D02*
X106797127Y-121737528D01*
X106797127Y-121737528D02*
X106749507Y-121785147D01*
X203023809Y-95544819D02*
X203214285Y-95544819D01*
X203214285Y-95544819D02*
X203309523Y-95592438D01*
X203309523Y-95592438D02*
X203404761Y-95687676D01*
X203404761Y-95687676D02*
X203452380Y-95878152D01*
X203452380Y-95878152D02*
X203452380Y-96211485D01*
X203452380Y-96211485D02*
X203404761Y-96401961D01*
X203404761Y-96401961D02*
X203309523Y-96497200D01*
X203309523Y-96497200D02*
X203214285Y-96544819D01*
X203214285Y-96544819D02*
X203023809Y-96544819D01*
X203023809Y-96544819D02*
X202928571Y-96497200D01*
X202928571Y-96497200D02*
X202833333Y-96401961D01*
X202833333Y-96401961D02*
X202785714Y-96211485D01*
X202785714Y-96211485D02*
X202785714Y-95878152D01*
X202785714Y-95878152D02*
X202833333Y-95687676D01*
X202833333Y-95687676D02*
X202928571Y-95592438D01*
X202928571Y-95592438D02*
X203023809Y-95544819D01*
X203880952Y-95544819D02*
X203880952Y-96354342D01*
X203880952Y-96354342D02*
X203928571Y-96449580D01*
X203928571Y-96449580D02*
X203976190Y-96497200D01*
X203976190Y-96497200D02*
X204071428Y-96544819D01*
X204071428Y-96544819D02*
X204261904Y-96544819D01*
X204261904Y-96544819D02*
X204357142Y-96497200D01*
X204357142Y-96497200D02*
X204404761Y-96449580D01*
X204404761Y-96449580D02*
X204452380Y-96354342D01*
X204452380Y-96354342D02*
X204452380Y-95544819D01*
X204785714Y-95544819D02*
X205357142Y-95544819D01*
X205071428Y-96544819D02*
X205071428Y-95544819D01*
X206214285Y-96544819D02*
X205642857Y-96544819D01*
X205928571Y-96544819D02*
X205928571Y-95544819D01*
X205928571Y-95544819D02*
X205833333Y-95687676D01*
X205833333Y-95687676D02*
X205738095Y-95782914D01*
X205738095Y-95782914D02*
X205642857Y-95830533D01*
X130794746Y-102423243D02*
X130794746Y-102899433D01*
X130794746Y-102899433D02*
X129794746Y-102899433D01*
X129889984Y-102137528D02*
X129842365Y-102089909D01*
X129842365Y-102089909D02*
X129794746Y-101994671D01*
X129794746Y-101994671D02*
X129794746Y-101756576D01*
X129794746Y-101756576D02*
X129842365Y-101661338D01*
X129842365Y-101661338D02*
X129889984Y-101613719D01*
X129889984Y-101613719D02*
X129985222Y-101566100D01*
X129985222Y-101566100D02*
X130080460Y-101566100D01*
X130080460Y-101566100D02*
X130223317Y-101613719D01*
X130223317Y-101613719D02*
X130794746Y-102185147D01*
X130794746Y-102185147D02*
X130794746Y-101566100D01*
X157844746Y-121963243D02*
X157844746Y-122439433D01*
X157844746Y-122439433D02*
X156844746Y-122439433D01*
X157178079Y-121201338D02*
X157844746Y-121201338D01*
X156797127Y-121439433D02*
X157511412Y-121677528D01*
X157511412Y-121677528D02*
X157511412Y-121058481D01*
X106854819Y-86166666D02*
X106854819Y-86642856D01*
X106854819Y-86642856D02*
X105854819Y-86642856D01*
X106854819Y-85309523D02*
X106854819Y-85880951D01*
X106854819Y-85595237D02*
X105854819Y-85595237D01*
X105854819Y-85595237D02*
X105997676Y-85690475D01*
X105997676Y-85690475D02*
X106092914Y-85785713D01*
X106092914Y-85785713D02*
X106140533Y-85880951D01*
X106100000Y-96604819D02*
X106100000Y-95604819D01*
X106576190Y-96604819D02*
X106576190Y-95604819D01*
X106576190Y-95604819D02*
X107147618Y-96604819D01*
X107147618Y-96604819D02*
X107147618Y-95604819D01*
X108147618Y-96604819D02*
X107576190Y-96604819D01*
X107861904Y-96604819D02*
X107861904Y-95604819D01*
X107861904Y-95604819D02*
X107766666Y-95747676D01*
X107766666Y-95747676D02*
X107671428Y-95842914D01*
X107671428Y-95842914D02*
X107576190Y-95890533D01*
%TO.C,L3*%
D11*
X105069927Y-123356577D02*
X105069927Y-104116577D01*
X105069927Y-123356577D02*
X155609927Y-123356577D01*
X122989927Y-123606577D02*
X124989927Y-123606577D01*
X155609927Y-104116577D02*
X105069927Y-104116577D01*
X155609927Y-123356577D02*
X155609927Y-104116577D01*
%TO.C,OUT1*%
X203170000Y-100130000D02*
X203170000Y-110350000D01*
X203170000Y-100130000D02*
X205830000Y-100130000D01*
X203170000Y-110350000D02*
X205830000Y-110350000D01*
X204500000Y-97530000D02*
X205830000Y-97530000D01*
X205830000Y-97530000D02*
X205830000Y-98860000D01*
X205830000Y-100130000D02*
X205830000Y-110350000D01*
%TO.C,L2*%
X155969927Y-103756577D02*
X155969927Y-84516577D01*
X155969927Y-103756577D02*
X206509927Y-103756577D01*
X173889927Y-104006577D02*
X175889927Y-104006577D01*
X206509927Y-84516577D02*
X155969927Y-84516577D01*
X206509927Y-103756577D02*
X206509927Y-84516577D01*
%TO.C,L4*%
X155969927Y-123356577D02*
X155969927Y-104116577D01*
X155969927Y-123356577D02*
X206509927Y-123356577D01*
X173889927Y-123606577D02*
X175889927Y-123606577D01*
X206509927Y-104116577D02*
X155969927Y-104116577D01*
X206509927Y-123356577D02*
X206509927Y-104116577D01*
%TO.C,L1*%
X105069927Y-103756577D02*
X105069927Y-84516577D01*
X105069927Y-103756577D02*
X155609927Y-103756577D01*
X122989927Y-104006577D02*
X124989927Y-104006577D01*
X155609927Y-84516577D02*
X105069927Y-84516577D01*
X155609927Y-103756577D02*
X155609927Y-84516577D01*
%TO.C,IN1*%
X105770000Y-100190000D02*
X105770000Y-110410000D01*
X105770000Y-100190000D02*
X108430000Y-100190000D01*
X105770000Y-110410000D02*
X108430000Y-110410000D01*
X107100000Y-97590000D02*
X108430000Y-97590000D01*
X108430000Y-97590000D02*
X108430000Y-98920000D01*
X108430000Y-100190000D02*
X108430000Y-110410000D01*
%TD*%
M02*
